<?xml version="1.0" encoding="utf-8"?>
<svg width="66" height="56" viewBox="0 0 66 56" fill="none" xmlns="http://www.w3.org/2000/svg">
    <g id="back-button">
        <path id="Oval" d="M37.9149 0C53.4259 0 66 12.536 66 28C66 43.464 53.4259 56 37.9149 56C22.4039 56 0 43.464 0 28C0 12.536 22.4039 0 37.9149 0Z" fill="#778595" fill-rule="evenodd" transform="matrix(-1 0 0 1 66 0)" />
        <path id="Combined Shape" d="M4.3039 6.25366L8.46213 2.13388C8.95484 1.64573 8.95484 0.854271 8.46213 0.366116C7.96942 -0.12204 7.17058 -0.12204 6.67787 0.366116L0.369534 6.61612C-0.123178 7.10427 -0.123178 7.89573 0.369534 8.38388L6.67787 14.6339C7.17058 15.122 7.96942 15.122 8.46213 14.6339C8.95484 14.1457 8.95484 13.3543 8.46213 12.8661L4.31129 8.75366L12.7383 8.75366C13.4351 8.75366 14 8.19402 14 7.50366C14 6.8133 13.4351 6.25366 12.7383 6.25366L4.3039 6.25366Z" fill="#010723" fill-rule="evenodd" transform="matrix(1 -0 -0 -1 22 36)" />
    </g>
</svg>