<svg width="66" height="56" viewBox="0 0 66 56" fill="none" xmlns="http://www.w3.org/2000/svg">
    <g id="next-button(/)">
        <path id="Oval" d="M37.9149 56C53.4259 56 66 43.464 66 28C66 12.536 53.4259 0 37.9149 0C22.4039 0 0 12.536 0 28C0 43.464 22.4039 56 37.9149 56Z" fill="#FF5858" fill-rule="evenodd" />
        <path id="Combined Shape" d="M4.3039 8.74634L8.46213 12.8661C8.95484 13.3543 8.95484 14.1457 8.46213 14.6339C7.96942 15.122 7.17058 15.122 6.67786 14.6339L0.369534 8.38388C-0.123177 7.89573 -0.123177 7.10427 0.369534 6.61612L6.67786 0.366116C7.17058 -0.12204 7.96942 -0.12204 8.46213 0.366116C8.95484 0.854271 8.95484 1.64573 8.46213 2.13388L4.31129 6.24634L12.7383 6.24634C13.4351 6.24634 14 6.80598 14 7.49634C14 8.1867 13.4351 8.74634 12.7383 8.74634L4.3039 8.74634Z" fill="#FFFFFF" fill-rule="evenodd" transform="matrix(-1 0 -0 -1 43 36)" />
    </g>
</svg>
