<?xml version="1.0" encoding="utf-8"?>
<svg width="375" height="412" viewBox="0 0 375 412" fill="none" xmlns="http://www.w3.org/2000/svg">
    <defs>
        <path id="path_1" d="M0 0L124.183 0L124.183 54.7558L0 54.7558L0 0Z" />
        <clipPath id="clip_path_2">
            <use p4:href="#path_1" xmlns:p4="http://www.w3.org/1999/xlink" />
        </clipPath>
    </defs>
    <g id="illustration" transform="matrix(1 0 0 1 0 -0)">
        <path id="Fill 1" d="M0 412L0 158.688L57.4575 118.001L28.1707 133.052L128.542 65.6808L113.07 82.2183L210 24L131.265 97.975L281 14L252 50L332 0L273 66L375 14L375 142.375L345.307 170.298L375 156.813L375 168.055L293.737 233.042L365.332 185.5L289.763 242.463L333.832 231.625L225.877 309.325L331.125 275.5L242.828 336.145L261.458 333.813L187.357 376.038L204.608 360.776L106.147 409.796L131.333 382.938L85.2075 412L0 412Z" fill="#0B2133" fill-rule="evenodd" transform="matrix(-1 0 0 1 375 0)" />
        <g id="Group 168" transform="translate(19 75.741)">
            <path id="Fill 1" d="M293.376 252.849C283.148 256.086 284.873 261.981 271.444 260.306C271.444 260.306 259.097 249.669 260.666 243.951L249.979 233.695C240.706 224.79 234.006 221.928 230.649 220.337C229.857 219.962 228.592 218.98 227.08 217.637C222.648 213.686 216.16 206.633 213.763 202.724C213.517 202.315 213.311 201.94 213.156 201.608C211.036 197.013 206.435 191.89 206.435 191.89L183.563 184.009C183.556 184.009 183.393 183.953 183.103 183.868C182.906 183.804 182.644 183.733 182.34 183.649C182.135 183.592 181.917 183.529 181.684 183.472C181.181 183.337 180.623 183.196 180.057 183.076C178.573 182.758 177.046 182.553 176.404 182.878C176.113 183.026 175.781 183.041 175.42 182.971C174.05 182.715 172.29 181.231 170.982 181.231C170.268 181.231 165.399 179.946 159.489 178.786C157.695 178.425 155.807 178.086 153.906 177.789C152.917 177.641 151.92 177.499 150.938 177.379C149.744 177.231 148.563 177.111 147.418 177.033C146.965 177.839 146.514 178.631 146.04 179.408C136.491 195.388 124.101 205.848 124.101 205.848L120.85 203.395C120.511 203.693 120.186 203.954 119.889 204.188L119.889 204.195C119.571 204.435 119.282 204.646 119.019 204.817C118.9 204.894 118.786 204.965 118.68 205.021C117.344 205.778 116.037 206.513 114.786 207.233C110.97 209.418 107.676 211.432 105.725 213.34C104.799 214.238 103.336 215.086 101.696 215.807L101.689 215.807C98.7343 217.107 95.2078 217.984 93.2362 217.984C90.1755 217.984 82.8741 206.202 78.394 204.555C73.9195 202.901 65.9121 197.72 65.9121 197.72L62.6112 197.72L56.7237 192.384L56.7237 190.179C56.7237 190.179 47.0694 180.306 39.3795 172.637C39.1603 172.418 38.9418 172.199 38.729 171.987L30.919 165.915L27.9793 165.915C27.9793 165.915 27.6609 165.745 27.145 165.491C25.7949 164.841 23.0591 163.612 20.9109 163.322C17.9357 162.926 5.36186 171.337 1.12114 172.51C-3.11958 173.691 5.83503 155.081 8.66271 151.546C9.66627 150.295 11.3203 148.713 13.059 147.037C16.2252 143.991 19.6671 140.634 19.971 138.351C20.4377 134.818 30.0993 133.404 32.5731 136.584C35.0469 139.765 40.7007 150.89 43.2946 153.688C43.9943 154.444 43.4647 155.046 42.3402 155.526L43.1326 156.077L43.7468 156.501L44.8922 157.293L51.444 161.845C67.9401 172.149 80.2311 175.117 84.288 178.404C89.2356 182.404 93.0032 188.3 95.1232 188.766C95.5899 188.872 96.375 188.504 97.3286 187.861C97.7808 187.557 98.2757 187.19 98.7843 186.779L96.9046 185.358C96.8973 185.352 96.8901 185.352 96.8901 185.352C96.8901 185.352 96.8973 185.352 96.9046 185.345C97.0738 185.239 98.4732 184.306 100.255 182.673C102.071 180.997 104.276 178.609 105.966 175.634C107.329 173.224 108.354 170.432 108.552 167.329C108.595 166.693 108.679 166.022 108.813 165.322C109.238 163.039 110.114 160.438 111.238 157.746C110.022 154.303 113.146 150.366 113.146 150.366C113.146 150.366 112.517 150.013 112.446 148.564C112.404 147.716 112.56 146.48 113.146 144.713C113.846 142.606 116.029 139.843 118.256 137.419C113.938 134.429 111.881 132.528 111.103 131.291C109.046 128.011 115.917 129.333 113.634 127.382C109.852 124.138 109.584 120.901 110.666 116.583C111.747 112.264 101.484 107.402 97.9791 87.9726C96.1759 78 97.364 70.5222 98.9399 65.6028C95.0804 63.1008 90.9606 59.4961 87.2003 55.814C84.6983 54.987 82.4929 53.5103 80.6413 51.8353C75.8984 51.4887 69.5378 47.5519 63.1344 42.4205C60.7524 40.5126 58.3568 38.4345 56.045 36.3211L56.024 36.3001C50.2147 30.9922 44.8922 25.4296 41.3584 21.5992C39.1748 19.3237 37.7892 17.6978 37.2378 17.0409C37.0613 16.8217 36.9686 16.708 36.9686 16.708C36.9686 16.708 36.9057 16.3759 36.8565 15.86C33.8878 14.68 30.7143 13.3298 30.0138 12.722C26.6509 9.77509 23.3847 9.3648 23.3847 9.3648C23.3847 9.3648 22.8834 7.39318 25.7739 8.21294C27.0814 8.58776 29.9864 8.41768 31.4777 8.29758C29.5125 6.29049 24.9751 5.08866 24.9751 5.08866L21.2648 5.08866C18.8192 8.74333 17.5536 6.89101 17.5536 6.89101L20.204 3.35724C20.204 3.35724 22.7697 2.69305 25.6111 2.17717C24.8268 2.00709 23.9716 1.99983 23.0591 2.26906C17.9357 3.79574 19.144 1.57665 19.144 1.57665L24.0917 0L31.5695 1.61131C31.8879 1.64033 32.1701 1.6895 32.3958 1.76688C35.0397 2.65113 41.3866 8.60872 42.2282 8.60872L42.2354 8.60872L44.1434 10.6231L45.076 11.6056C45.0833 11.6056 47.2879 11.733 49.6206 13.0824L49.6271 13.0824C50.5613 13.6264 51.5149 14.3551 52.3556 15.3587C52.7869 15.8673 53.0553 16.1357 53.26 16.284C54.4764 17.1538 53.6494 13.6764 71.5876 27.8824C75.5946 29.6066 79.9699 31.0913 84.4436 32.3706C89.6596 33.8618 95.0248 35.0773 100.105 36.0526C106.277 32.9928 116.065 36.4129 116.065 36.4129C116.065 36.4129 116.065 35.6004 122.271 36.4129C123.316 36.5476 124.631 37.1199 126.101 37.9896C126.645 38.3072 127.218 38.6748 127.805 39.0705L130.788 36.0107L131.084 35.706L132.498 34.2575C131.296 33.1976 130.427 31.7555 130.116 30.1797C130.293 31.0486 130.936 31.812 131.77 32.1231C130.908 31.0986 130.526 29.6848 130.752 28.3628C131.274 28.8505 131.806 29.3317 132.328 29.8121C131.862 28.603 131.96 27.19 132.59 26.0591C132.356 25.6988 132.131 25.3385 131.898 24.9774C132.272 24.5252 132.767 24.1721 133.311 23.9601C132.575 23.458 131.848 22.963 131.12 22.4681C131.642 22.0659 132.285 21.8112 132.943 21.7338C132.781 21.3025 132.392 20.9632 131.939 20.8568C132.307 20.299 132.915 19.9032 133.573 19.7896C132.837 18.9908 132.548 17.8107 132.823 16.7644C133.473 16.7153 133.798 15.7399 133.311 15.3159C134.025 15.3651 134.611 14.7436 134.753 14.0722C134.837 13.6901 134.781 13.2943 134.533 12.9832C135.169 12.9203 135.799 12.8494 136.435 12.7857C136.067 12.0369 135.693 11.2873 135.325 10.5384C136.25 10.2482 137.213 10.079 138.188 10.0363C138.315 9.46395 137.996 8.82071 137.467 8.57325C139.071 7.59067 140.951 7.0893 142.831 7.13202C142.888 6.44606 142.937 5.75366 142.994 5.06044L147.927 6.55165C148.704 6.79267 149.991 6.56616 149.737 5.78912C150.302 5.81008 150.846 6.11396 151.163 6.58067C151.553 6.43881 151.849 6.05029 151.878 5.63355C152.493 6.20585 153.023 6.8773 153.447 7.60517C154.245 7.51328 155.073 8.0082 155.362 8.75703C155.8 8.15652 155.97 7.36497 155.8 6.64435C156.585 7.50603 157.264 8.46766 157.814 9.49941C158.267 9.14636 158.712 8.7925 159.164 8.43945C159.448 8.92711 159.723 9.42123 160.006 9.90889C160.593 8.97628 161.101 7.9937 161.511 6.96919C162.02 8.19843 162.585 9.41478 163.2 10.5949C163.454 11.0825 163.716 11.5629 163.986 12.0369C164.197 11.7894 164.402 11.5347 164.614 11.2873C164.861 12.0724 165.116 12.8631 165.363 13.6547C165.83 13.7046 166.303 13.6482 166.749 13.5063C166.735 14.1077 166.721 14.7082 166.713 15.3159C166.989 15.3442 167.272 15.3724 167.554 15.4078C167.582 16.0438 167.441 16.6871 167.137 17.2456C167.597 18.0654 167.547 19.1399 167.017 19.9169C167.505 19.5139 168.105 19.239 168.735 19.1326C168.975 20.5529 168.233 21.9313 167.512 23.175L167.06 23.9666C167.109 23.9811 167.151 24.002 167.208 24.002C166.925 24.4123 166.636 24.8154 166.353 25.2248C166.741 25.465 167.13 25.6988 167.519 25.939C166.685 26.4904 165.745 27.5648 166.396 28.3274C166.006 28.9424 165.59 29.5292 165.144 30.1015C165.137 30.2224 165.137 30.349 165.123 30.4691C164.946 33.1621 164.07 36.0881 162.897 38.915L162.897 43.1556L161.088 42.8098C159.228 46.4427 157.171 49.5807 155.927 51.3686L155.927 51.3758C155.235 52.3721 154.804 52.9452 154.804 52.9452C152.09 52.7679 149.737 51.4395 147.87 50.7753C146.952 50.4432 146.153 50.2804 145.489 50.4851C145.171 50.5843 144.88 50.7753 144.626 51.0719C144.555 51.3541 144.485 51.637 144.421 51.9199L144.421 51.9272C144.308 52.4148 144.209 52.9098 144.118 53.3902L144.125 53.3974C144.576 53.8496 145.022 54.3083 145.46 54.7758C145.503 54.8177 145.538 54.8532 145.566 54.8886C148.097 57.5744 150.373 60.4222 151.949 63.2709C152.719 64.6557 153.56 66.3242 154.458 68.183C160.465 80.7349 168.6 102.051 170.084 105.96C173.887 108.674 180.516 113.593 179.909 114.491C179.054 115.741 187.394 119.551 186.786 120.767C186.206 121.926 192.574 127.891 200.222 132.817C200.575 133.043 200.936 133.27 201.296 133.496C201.918 133.651 202.604 133.82 203.324 134.005C206.971 134.938 211.452 136.11 212.972 136.697C213.156 136.761 213.289 136.825 213.382 136.875C214.824 137.673 217.926 142.698 217.926 142.698L217.786 148.189C217.786 148.189 216.852 147.794 215.891 146.988L215.531 150.325C215.531 150.325 214.131 150.494 214.265 149.271L213.722 147.85L210.809 149.766L204.561 150.882C204.561 150.882 203.6 149.766 206.003 148.642L202.964 147.363C203.127 145.235 206.463 147.08 204.724 145.921C204.349 145.674 202.908 145.192 201.162 144.423C199.409 143.652 197.352 142.585 195.755 141.164C195.755 141.164 195.564 141.073 195.204 140.895C194.971 140.776 194.659 140.627 194.285 140.437C194.094 140.345 193.882 140.238 193.655 140.125C184.567 137.39 179.032 132.732 179.032 132.732C177.181 132.52 175.343 132.061 173.548 131.425L173.526 131.418C167.71 129.361 162.36 125.445 158.514 122.11C158.458 123.205 158.578 124.343 158.967 125.488C159.631 127.46 162.147 129.701 164.423 131.771C167.42 134.514 169.986 136.98 167.328 138.231C171.109 140.246 178.679 144.43 186.185 149.477C193.189 154.19 200.137 159.647 203.897 164.799C204.173 165.173 204.427 165.548 204.667 165.915C204.667 165.915 210.682 167.683 212.979 169.273C213.651 169.732 214.506 171.047 215.417 172.694C216.563 174.764 217.799 177.359 218.88 179.436L220.379 181.013L227.842 188.851C227.842 188.857 227.849 188.857 227.849 188.857L229.829 190.943L231.207 192.384L234.359 194.01L239.695 199.424L246.905 206.732L249.025 209.559L268.914 231.703L271.819 231.703C271.819 231.703 272.151 232.106 272.716 232.699C274.094 234.161 276.844 236.798 279.24 237.3C282.598 238.007 286.484 239.95 286.484 239.95C286.484 239.95 298.288 239.236 304.677 239.357C306.705 239.393 308.183 239.519 308.572 239.774C310.162 240.834 298.916 251.096 293.376 252.849" fill="#B23D3D" fill-rule="evenodd" transform="translate(16.344 0)" />
            <path id="Fill 3" d="M23.6083 8.88649L23.4892 13.7561L23.4674 14.4993C23.4674 14.4993 22.5361 14.0956 21.5766 13.2716L21.216 16.682C21.216 16.682 19.8186 16.8551 19.9522 15.6051L19.4089 14.1533L18.1886 14.9698L18.1886 14.9772L16.5014 16.1119L10.2623 17.2522C10.2623 17.2522 9.30197 16.1119 11.7015 14.9624L8.66687 13.6548C8.70148 13.1925 8.87857 12.9182 9.11844 12.7591C9.20297 12.694 9.29553 12.6504 9.39374 12.6215C9.40742 12.6141 9.41467 12.6075 9.42915 12.6075C9.57727 12.5639 9.73262 12.5424 9.88797 12.535C10.7066 12.5062 11.4544 12.8819 10.4241 12.1807C10.0498 11.9277 8.61052 11.4367 6.867 10.6498C5.11624 9.86206 3.06282 8.77031 1.46742 7.31931C1.46742 7.31931 1.27745 7.22455 0.917633 7.0441C0.684204 6.92133 0.373489 6.76971 0 6.57443C2.56859 4.84081 6.06931 2.23955 9.02669 0C12.6683 0.954147 17.1438 2.15303 18.6611 2.75287C18.7738 2.79572 18.8728 2.83197 18.9501 2.86823C18.9992 2.89706 19.0346 2.9119 19.07 2.93332C19.1553 2.97699 19.2399 3.04126 19.3316 3.11377C19.3316 3.11377 19.3381 3.12119 19.3598 3.13602C20.6155 4.15445 22.6907 7.405 23.3757 8.51076C23.5246 8.74889 23.6083 8.88649 23.6083 8.88649" fill="#E8B485" fill-rule="evenodd" transform="translate(210.659 134.386)" />
            <path id="Fill 5" d="M56.2967 34.511L43.7469 52.6647C38.874 48.3183 31.5057 40.1886 29.8956 36.6874C27.7859 32.1088 23.2089 27.0016 23.2089 27.0016L0.457062 19.1467C0.450638 19.1467 0.287872 19.0913 0 19.0061L7.62886 7.69981L20.6855 0C20.9597 0.373581 21.2123 0.747162 21.4513 1.11351C21.4513 1.11351 27.4347 2.87457 29.7192 4.45969C30.3871 4.91682 31.2387 6.22717 32.1456 7.86934C33.2851 9.93248 34.5151 12.5186 35.5904 14.589L37.0811 16.1605L47.8524 27.4949L50.9884 29.1145L56.2967 34.511Z" fill="#E8B485" fill-rule="evenodd" transform="translate(199.763 165.258)" />
            <path id="Fill 7" d="M90.8012 48.5216C90.682 48.5993 90.5684 48.6705 90.4621 48.7272C89.1273 49.4865 87.8208 50.2248 86.5706 50.9485C82.7574 53.1422 79.466 55.1652 77.5159 57.0813C76.0756 58.4939 73.3135 59.7785 70.6296 60.6374C68.4902 61.3255 66.3918 61.7448 65.0361 61.7448C61.9776 61.7448 54.6813 49.9131 50.2043 48.2593C45.7329 46.5982 37.7301 41.3947 37.7301 41.3947L34.4324 41.3947L28.5489 36.0358L28.5489 33.8218C28.5489 33.8218 18.9005 23.9062 11.2159 16.2046C10.9976 15.9844 10.7785 15.7643 10.5667 15.5514L6.96444 12.7335L2.7621 9.45418L0 9.45418L15.581 0L16.7256 0.794937L23.2728 5.36539C35.9226 13.3082 46.0929 16.9073 51.9764 19.6466C53.7638 20.4772 55.1477 21.23 56.0942 21.9958C56.5887 22.3941 57.0616 22.8126 57.528 23.2392L57.5352 23.253C57.8598 23.5444 58.178 23.8488 58.4889 24.1539C62.2595 27.8526 65.1634 32.011 66.921 32.402C67.3882 32.5088 68.172 32.1397 69.1257 31.4937C69.5768 31.1885 70.0722 30.8194 70.5797 30.4073L68.7012 28.9802C68.6947 28.9737 68.6875 28.9737 68.6875 28.9737C68.6875 28.9737 68.6947 28.9737 68.7012 28.9664C68.8703 28.8604 70.2695 27.9238 72.0497 26.2829L90.8012 48.5216Z" fill="#E8B485" fill-rule="evenodd" transform="translate(44.493 156.178)" />
            <path id="Fill 9" d="M26.3323 10.7553L19.4942 17.2522C19.3186 17.0302 19.2276 16.916 19.2276 16.916C19.2276 16.916 19.1645 16.5798 19.1158 16.0575C16.1757 14.8627 13.0329 13.4957 12.3399 12.8804C9.00869 9.89677 5.77402 9.48138 5.77402 9.48138C5.77402 9.48138 5.27748 7.48521 8.14015 8.31518C9.43497 8.69466 12.3128 8.52247 13.7888 8.40087C11.8434 6.3688 7.34984 5.152 7.34984 5.152L3.67452 5.152C1.25251 8.85135 0 6.97679 0 6.97679L2.50503 3.55654L2.62477 3.39903C2.62477 3.39903 5.16493 2.72657 7.97969 2.20345C7.20216 2.03207 6.35597 2.02473 5.45231 2.2973C0.37759 3.84299 1.57423 1.59546 1.57423 1.59546L6.47412 0L13.8798 1.63137C14.1952 1.65993 14.4746 1.71053 14.6989 1.78888C14.9583 1.88191 15.2593 2.0182 15.5882 2.20345C18.5211 3.8283 23.6868 8.71588 24.4356 8.71588L24.4428 8.71588L26.3323 10.7553Z" fill="#E8B485" fill-rule="evenodd" transform="translate(33.596 0)" />
            <path id="Fill 11" d="M36.5927 20.2566C36.985 20.4979 37.3773 20.7319 37.7697 20.9732C37.5849 21.1012 37.3847 21.251 37.2064 21.4137C36.5853 21.996 36.1287 22.7766 36.6358 23.3733C36.2426 23.9912 35.8218 24.5807 35.3717 25.1556C35.3644 25.2762 35.3644 25.4042 35.3505 25.5248C35.1723 28.2302 34.2875 31.1696 33.1023 34.0094L33.1023 38.2694L31.2757 37.9212C29.3979 41.5708 27.3206 44.7231 26.0646 46.5199L26.0646 46.5264C25.3654 47.5281 24.9307 48.103 24.9307 48.103C22.6214 50.8885 19.8132 46.5904 17.928 45.9232C17.0009 45.5895 16.1942 45.426 15.5235 45.6317C15.2028 45.7313 14.9089 45.9232 14.6525 46.2211C14.5809 46.5054 14.5101 46.7896 14.4458 47.0738L0.678055 31.091L2.40532 29.3306C1.19167 28.2658 0.314194 26.8172 0 25.2333C0.178268 26.107 0.82782 26.8739 1.6703 27.1864C0.799332 26.1564 0.414322 24.7369 0.642227 23.409C1.16969 23.8989 1.70612 24.3815 2.23357 24.8641C1.76309 23.6503 1.8624 22.2308 2.49812 21.0947C2.26207 20.7319 2.03415 20.37 1.7989 20.008C2.17659 19.5538 2.67638 19.1983 3.22581 18.9853C2.48346 18.4817 1.74844 17.9845 1.01341 17.4873C1.54088 17.0832 2.19043 16.8273 2.85464 16.7488C2.69102 16.3156 2.29788 15.9747 1.84123 15.8686C2.2124 15.3075 2.82616 14.9099 3.49037 14.7965C2.74802 13.994 2.4558 12.8086 2.73335 11.7575C3.39024 11.7081 3.71828 10.7283 3.22581 10.3024C4.34668 10.3801 5.15985 8.82543 4.46063 7.959C5.10287 7.89503 5.73859 7.82377 6.38083 7.76061C6.00964 7.00755 5.63115 6.25448 5.25996 5.50223C6.19443 5.21153 7.16632 5.04067 8.15125 4.99857C8.27904 4.42365 7.9575 3.77666 7.42273 3.52888C9.04256 2.54179 10.9408 2.03732 12.8398 2.08024C12.8968 1.39195 12.9464 0.695572 13.0042 0L17.9858 1.49803C18.7705 1.73934 20.0696 1.51261 19.8132 0.731201C20.3838 0.753065 20.9332 1.05834 21.2539 1.52637C21.6471 1.38467 21.9466 0.993559 21.9751 0.57492C22.597 1.14984 23.1318 1.82436 23.56 2.55637C24.3658 2.46325 25.2018 2.96043 25.494 3.7135C25.936 3.10943 26.1077 2.31426 25.936 1.59034C26.7288 2.45677 27.4142 3.42199 27.9701 4.45847C28.4276 4.1038 28.8769 3.74913 29.3336 3.39365C29.6201 3.88354 29.8976 4.38073 30.1833 4.87063C30.7759 3.93294 31.2896 2.94667 31.7031 1.91748C32.2175 3.15234 32.7881 4.37344 33.4092 5.55972C33.6656 6.04962 33.9301 6.53223 34.2012 7.00755C34.4153 6.75977 34.6228 6.50388 34.8369 6.25448C35.086 7.04318 35.344 7.83835 35.5931 8.63352C36.0644 8.68372 36.5422 8.62623 36.9923 8.48453C36.9785 9.0886 36.9638 9.69186 36.9565 10.3024C37.2349 10.3307 37.5206 10.3591 37.8055 10.3947C37.834 11.0336 37.6915 11.6798 37.3847 12.2409C37.8486 13.0645 37.7982 14.143 37.2634 14.9244C37.7558 14.5196 38.3623 14.2426 38.998 14.1357C39.2406 15.5633 38.4909 16.948 37.7624 18.1974L37.3065 18.9926C37.3554 19.0072 37.3985 19.0282 37.4563 19.0282C37.1706 19.4396 36.8784 19.8445 36.5927 20.2566" fill="#E8B485" fill-rule="evenodd" transform="translate(146.19 5.448)" />
            <path id="Fill 13" d="M108.053 28.3602L88.4082 38.0321L83.3769 45.4378C81.8889 45.1217 80.3573 44.918 79.7139 45.2412C79.4222 45.3888 79.0892 45.4025 78.7279 45.3327C77.3539 45.0792 75.5887 43.6024 74.2777 43.6024C73.5616 43.6024 68.679 42.3221 62.7537 41.1686C60.9546 40.81 59.0617 40.4723 57.155 40.1763C56.1633 40.0295 55.1643 39.8883 54.1791 39.7688C52.9812 39.6212 51.7972 39.5016 50.6503 39.4238C50.196 40.226 49.7426 41.0137 49.2682 41.787C39.6937 57.6902 27.2702 68.1009 27.2702 68.1009L24.0105 65.6599L1.88483 49.1238L0 47.7095L0 47.6959C0.333 47.4777 5.73288 43.9048 9.08548 38.0321C10.453 35.6327 11.4803 32.8548 11.6791 29.7672C11.7212 29.1343 11.806 28.4661 11.941 27.7698C12.3661 25.498 13.2447 22.9094 14.3722 20.2293C13.1526 16.804 16.2853 12.8862 16.2853 12.8862C16.2853 12.8862 15.6549 12.534 15.5838 11.0925C15.5409 10.2486 15.6969 9.01808 16.2853 7.25891C16.9869 5.16281 19.1764 2.41295 21.4096 0L70.6139 0.809402C74.4046 2.81323 81.9956 6.97815 89.5212 11.9998C97.0548 17.0286 104.517 22.9158 108.053 28.3602" fill="#023297" fill-rule="evenodd" transform="translate(113.502 138.018)" />
            <path id="Fill 15" d="M16.3442 0.185879C16.3442 0.185879 1.84381 10.0328 0.765488 15.6597C-0.312836 21.2859 0.166061 15.6597 0.166061 15.6597C0.166061 15.6597 -0.927032 8.62587 2.49573 3.70241C5.91849 -1.22025 16.3442 0.185879 16.3442 0.185879" fill="#FF5858" fill-rule="evenodd" transform="translate(141.65 56.297)" />
            <path id="Fill 17" d="M17.2522 7.65953C17.2522 7.65953 5.85378 2.61892 4.35767 0.596169C2.85999 -1.42741 -1.16902 2.26226 0.327866 3.33308C1.82397 4.4039 4.47191 9.84434 17.2522 7.65953" fill="#FF5858" fill-rule="evenodd" transform="translate(130.754 41.769)" />
            <path id="Fill 19" d="M4.59631 0.0156288C6.83801 -0.401276 11.1885 7.6562 15.5438 8.24147C19.8992 8.82754 26.7266 7.42129 28.021 8.24147C29.3155 9.06165 20.3696 13.7294 18.0151 19.4217C15.6614 25.1133 -0.347847 23.3559 0.00576782 14.4509C0.358582 5.54683 0.947395 0.693901 4.59631 0.0156288" fill="#FF5858" fill-rule="evenodd" transform="translate(119.858 46.309)" />
            <path id="Fill 21" d="M1.77573 0.0812759C2.18639 -0.953743 4.5839 8.23445 11.0176 8.47056C17.452 8.70748 24.0033 14.8521 23.5359 16.9787C23.0676 19.1062 14.1764 15.089 9.84802 17.6879C5.51969 20.2875 19.4445 26.669 19.2676 29.1507C19.0899 31.6323 32.0612 36.9489 29.6701 39.2534C27.2782 41.5579 13.7865 42.2008 7.85957 35.5314C1.93183 28.862 -2.66947 11.3072 1.77573 0.0812759" fill="#FF5858" fill-rule="evenodd" transform="translate(114.41 67.193)" />
            <path id="Fill 23" d="M2.28882e-05 5.98253C0.02108 1.09435 4.18196 -0.395325 9.26909 0.0855865C14.357 0.567322 25.5977 7.30586 31.5147 11.3977C37.4301 15.4896 56.1253 19.0997 52.1029 20.6644C48.0797 22.229 -0.0404587 15.2483 2.28882e-05 5.98253" fill="#FF5858" fill-rule="evenodd" transform="translate(127.122 113.502)" />
            <path id="Fill 25" d="M0.142639 12.7986C-0.608307 9.0583 1.37141 0.633789 11.7414 0.0430069C22.1105 -0.547779 27.0885 5.12164 27.1311 6.42039C27.173 7.71996 15.0313 2.99611 11.7414 4.76685C8.45151 6.53839 10.3345 10.2787 14.5736 9.88509C18.8134 9.49149 25.2634 6.89318 26.6888 7.95594C28.1158 9.01952 26.584 18.35 26.1135 21.7743C25.6421 25.1994 27.8426 28.8605 29.3921 26.3809C30.9415 23.9006 28.5863 15.9877 29.8812 16.1057C31.1768 16.2237 40.9505 35.7114 38.713 38.4277C36.4754 41.1441 20.1083 34.2939 17.7531 29.4512C15.3987 24.6094 15.6339 16.6965 11.0412 18.468C6.44923 20.2395 0.900848 16.5777 0.142639 12.7986" fill="#FF5858" fill-rule="evenodd" transform="translate(144.374 64.469)" />
            <path id="Fill 27" d="M0 2.28684C0 2.28684 12.0208 4.12576 12.6152 0C12.6152 0 21.7656 5.31223 20.815 7.00625C19.8636 8.70026 7.5867 9.54727 0 2.28684" fill="#FF5858" fill-rule="evenodd" transform="translate(173.43 108.053)" />
            <path id="Fill 29" d="M0 1.01278C0 1.01278 8.466 2.15204 10.401 0C10.401 0 18.5045 3.41866 14.1511 5.69719C9.79686 7.97659 2.17009 3.83278 0 1.01278" fill="#FF5858" fill-rule="evenodd" transform="translate(186.142 117.134)" />
            <path id="Fill 31" d="M0 0.639473C0 0.639473 8.64473 2.85459 15.8881 0L19.9763 3.35767C19.9763 3.35767 4.57338 7.35922 0 0.639473" fill="#FF5858" fill-rule="evenodd" transform="translate(187.05 124.398)" />
            <path id="Fill 33" d="M0 2.80614L3.46675 0L8.1721 2.80614L4.95274 4.54005L0 2.80614Z" fill="#FF5858" fill-rule="evenodd" transform="translate(207.027 129.846)" />
            <path id="Fill 35" d="M2.43016 9.23245C2.43016 9.23245 30.9221 5.91739 44.4926 0C44.4926 0 7.89885 15.1507 2.43016 13.4935C-3.0377 11.8364 2.43016 9.23245 2.43016 9.23245" fill="#0448D8" fill-rule="evenodd" transform="translate(128.938 142.558)" />
            <path id="Fill 37" d="M0.0802002 6.89351C0.0802002 6.89351 15.0806 4.64529 24.5163 0C24.5163 0 -1.62796 16.7211 0.0802002 6.89351" fill="#0448D8" fill-rule="evenodd" transform="translate(128.938 153.454)" />
            <path id="Fill 39" d="M53.4679 0C53.4679 0 21.1666 28.7048 0 34.5045C0 34.5045 62.2436 10.5442 72.6409 12.1846C72.6409 12.1846 65.3916 7.23793 60.8636 7.71977C56.3371 8.20081 43.5775 16.4024 44.5225 13.8249C45.4676 11.2473 57.1181 4.46719 64.0755 6.06261C64.0755 6.06261 56.7421 0.70311 53.4679 0" fill="#0448D8" fill-rule="evenodd" transform="translate(130.754 141.65)" />
            <path id="Fill 41" d="M0 6.91513C0 6.91513 8.45396 -2.98628 21.4868 0.906921C21.4868 0.906921 23.0206 2.61919 27.2404 5.70689C27.2404 5.70689 13.5037 10.9096 7.57417 17.2522C7.57417 17.2522 1.29115 15.843 7.57417 9.1467C13.8556 2.45036 0 6.91513 0 6.91513" fill="#0448D8" fill-rule="evenodd" transform="translate(189.775 157.086)" />
            <path id="Fill 43" d="M53.5605 0C54.0471 0.476105 39.8051 11.0368 33.9241 12.7856C28.0431 14.5343 -1.2529 21.2063 0.0416107 19.7771C1.33612 18.3472 53.5605 0 53.5605 0" fill="#0448D8" fill-rule="evenodd" transform="translate(119.858 165.258)" />
            <path id="Fill 45" d="M0 0L2.70154 7.19559L7.62802 10.8961C7.62802 10.8961 11.2084 0.630859 0 0" fill="#F4C7A2" fill-rule="evenodd" transform="translate(222.463 168.89)" />
            <path id="Fill 47" d="M28.1484 10.042C28.1484 10.042 23.9787 24.0333 24.3856 26.0315C25.4159 31.0885 21.6937 39.0445 21.6937 39.0445L20.4827 32.3312C20.4827 32.3312 15.8752 22.4648 14.6538 23.1157C13.4325 23.7602 10.4651 32.8008 10.4651 32.8008L3.22536 23.1157L0.957016 21.4354L2.35353 19.9994C1.16562 18.9492 0.307327 17.5205 0 15.9591C0.174362 16.8201 0.809723 17.5772 1.63377 17.8847C0.782654 16.8696 0.405258 15.4688 0.628983 14.1598C1.14491 14.643 1.66881 15.119 2.18553 15.595C1.72453 14.3978 1.82246 12.997 2.44429 11.8765C2.21339 11.5195 1.99046 11.1625 1.75957 10.8055C2.129 10.3575 2.61865 10.0069 3.15529 9.79687C2.42917 9.29932 1.711 8.80975 0.99205 8.31939C1.50798 7.92007 2.14333 7.6677 2.79222 7.59103C2.63219 7.16376 2.24843 6.82754 1.80098 6.72292C2.16403 6.16946 2.76436 5.77733 3.41484 5.66552C2.68793 4.87407 2.4021 3.70407 2.67439 2.66824C3.31691 2.61952 3.63777 1.65318 3.15529 1.2323C3.8607 1.28181 4.44034 0.665263 4.57967 0L28.1484 10.042Z" fill="#B57F57" fill-rule="evenodd" transform="translate(147.098 14.528)" />
            <path id="Fill 49" d="M36.5927 20.3562C36.985 20.5987 37.3773 20.8338 37.7697 21.0763C37.5849 21.2049 37.3847 21.3554 37.2064 21.519L35.322 21.6476L32.8239 26.1638L25.9645 29.4178C26.4073 29.1461 28.1134 27.8905 25.8652 26.1638C23.3101 24.2092 20.9406 31.5368 20.9406 31.5368L19.5202 29.4748L18.7281 31.986L16.9504 29.4748L16.2292 31.986L13.5528 29.4748L13.5528 33.5988L12.4833 31.986L11.4121 34.5045C7.00841 30.4659 2.40532 29.4748 2.40532 29.4748C1.19167 28.4048 0.314194 26.949 0 25.3573C0.178268 26.2354 0.82782 27.006 1.6703 27.3201C0.799332 26.285 0.414322 24.8585 0.642227 23.524C1.16969 24.0163 1.70612 24.5013 2.23357 24.9863C1.76309 23.7665 1.8624 22.3401 2.49812 21.1984C2.26207 20.8338 2.03415 20.4701 1.7989 20.1064C2.17659 19.6499 2.67638 19.2926 3.22581 19.0786C2.48346 18.5725 1.74844 18.0729 1.01341 17.5732C1.54088 17.1672 2.19043 16.9101 2.85464 16.8311C2.69102 16.3958 2.29788 16.0532 1.84123 15.9466C2.2124 15.3827 2.82616 14.9831 3.49037 14.8692C2.74802 14.0628 2.4558 12.8715 2.73335 11.8153C3.39024 11.7657 3.71828 10.7811 3.22581 10.353C3.78258 10.388 4.26772 10.0243 4.52493 9.53199C4.78215 9.04701 4.81065 8.43346 4.46063 7.99812C5.10287 7.93383 5.73859 7.86223 6.38083 7.79876C6.00964 7.04199 5.63115 6.28522 5.25996 5.52927C6.19443 5.23714 7.16632 5.06545 8.15125 5.02313C8.27904 4.44539 7.9575 3.79522 7.42273 3.54622C9.04256 2.55429 10.9408 2.04734 12.8398 2.09046C12.8968 1.3988 12.9464 0.698991 13.0042 0L17.9858 1.50539C18.7705 1.74788 20.0696 1.52004 19.8132 0.734795C20.3838 0.756766 20.9332 1.06354 21.2539 1.53387C21.5478 1.42646 21.7896 1.18397 21.897 0.891844C21.9393 0.791756 21.9678 0.685158 21.9751 0.577746C22.597 1.15549 23.1318 1.83333 23.56 2.56893C24.3658 2.47536 25.2018 2.97498 25.494 3.73175C25.936 3.12471 26.1077 2.32563 25.936 1.59816C26.7288 2.46885 27.4142 3.43881 27.9701 4.48038C28.4276 4.12397 28.8769 3.76755 29.3336 3.41033C29.6201 3.90263 29.8976 4.40226 30.1833 4.89457C30.7759 3.95227 31.2896 2.96115 31.7031 1.9269C32.2175 3.16784 32.7881 4.39494 33.4092 5.58705C33.6656 6.07935 33.9301 6.56433 34.2012 7.04199C34.4153 6.79299 34.6228 6.53585 34.8369 6.28522C35.086 7.07779 35.344 7.87687 35.5931 8.67595C36.0644 8.7264 36.5422 8.66863 36.9923 8.52623C36.9785 9.13327 36.9638 9.73949 36.9565 10.353C37.2349 10.3815 37.5206 10.41 37.8055 10.4458C37.834 11.0878 37.6915 11.7372 37.3847 12.3011C37.8486 13.1287 37.7982 14.2126 37.2634 14.9978C37.7558 14.5909 38.3623 14.3126 38.998 14.2052C39.2406 15.6398 38.4909 17.0313 37.7624 18.2869L37.3065 19.086C37.3554 19.1006 37.3985 19.1218 37.4563 19.1218C37.1706 19.5351 36.8784 19.942 36.5927 20.3562" fill="#F9AE40" fill-rule="evenodd" transform="translate(146.19 5.448)" />
            <path id="Fill 51" d="M14.5282 2.11402C14.5282 2.11402 13.1434 1.60979 11.4862 2.05921C10.2851 2.38571 6.70908 2.11402 6.70908 2.11402C5.91003 1.9496 5.04042 1.94255 4.11174 2.20328C-1.10346 3.68622 0.126297 1.53071 0.126297 1.53071L5.16183 0L12.7726 1.56516C13.0966 1.59256 13.3838 1.6411 13.6143 1.71627C13.8809 1.80475 14.1902 1.9355 14.5282 2.11402" fill="#B57F57" fill-rule="evenodd" transform="translate(35.412 0)" />
            <path id="Fill 53" d="M0.789108 0.00384521C0.792465 -0.170502 3.86324 5.64716 3.61812 6.15031C3.37299 6.65347 2.82062 7.65826 1.83928 7.10005C0.857941 6.54108 0 1.28926 0 1.28926C0 1.28926 0.78154 0.450409 0.789108 0.00384521" fill="#F4C7A2" fill-rule="evenodd" transform="translate(228.819 139.834)" />
            <path id="Fill 55" d="M0.772842 0L1.81602 5.89981C1.81602 5.89981 1.17233 7.2641 0.470215 7.2641C-0.231918 7.2641 0.0603027 0.950027 0.0603027 0.950027C0.0603027 0.950027 0.666351 0.345612 0.772842 0" fill="#F4C7A2" fill-rule="evenodd" transform="translate(227.003 141.65)" />
            <path id="Fill 57" d="M2.72403 0C2.72403 0 2.23466 3.98193 1.6067 4.36786C0.978745 4.75531 0 4.36786 0 4.36786C0 4.36786 1.67648 1.27206 1.67648 0.608414C1.67648 0.608414 2.30539 0.497925 2.72403 0" fill="#F4C7A2" fill-rule="evenodd" transform="translate(223.371 143.466)" />
            <path id="Fill 59" d="M3.63205 5.42017C3.30238 6.31223 2.73199 6.35608 2.73199 6.35608L0 1.64012C0.177841 1.2123 0 0 0 0C0 0 0.00578308 0.00744629 0.0252991 0.0223389C1.15309 1.04514 3.01683 4.30966 3.63205 5.42017" fill="#F4C7A2" fill-rule="evenodd" transform="translate(230.635 137.11)" />
            <path id="Fill 61" d="M0 0.151642C0.0953369 0.0799103 0.199768 0.0317841 0.310547 0C0.231537 0.0562897 0.119858 0.103516 0 0.151642" fill="#B57F57" fill-rule="evenodd" transform="translate(219.739 146.19)" />
            <path id="Fill 63" d="M0 0.422226C0.0236053 0.238815 0.0481262 0.0880737 0.0635529 0C0.0562897 0.0880737 0.0317841 0.238815 0 0.422226" fill="#B57F57" fill-rule="evenodd" transform="translate(226.095 146.19)" />
            <path id="Fill 65" d="M6.35608 3.4034L0.187637 4.54005C0.187637 4.54005 -0.76178 3.4034 1.61058 2.25854C1.61058 2.25854 4.31161 2.87733 4.77956 2.15759C5.09311 1.66928 5.30241 0.617981 5.40746 0C5.29524 0.869934 5.23238 2.67627 6.35608 3.4034" fill="#B57F57" fill-rule="evenodd" transform="translate(220.647 146.19)" />
            <path id="Fill 67" d="M19.0683 2.79433L18.7775 4.56116C18.7775 4.56116 17.1867 5.68018 17.3357 6.67317C17.3357 6.67317 16.8238 6.44037 16.1491 7.14357C15.4679 7.84756 15.4679 8.40468 15.4679 8.40468C15.4679 8.40468 14.9998 7.67258 14.6442 7.79218C14.2894 7.90457 12.3925 12.7122 12.3925 12.7122C12.3925 12.7122 10.8301 12.2402 9.94965 12.2121C10.7734 12.184 11.5258 12.55 10.4891 11.8669C10.1124 11.6212 8.66422 11.142 6.90984 10.3754C5.14815 9.60797 3.08192 8.54515 1.47658 7.13072C1.47658 7.13072 1.28542 7.03922 0.923355 6.86261C0.689285 6.743 0.375824 6.59531 0 6.40585C2.58461 4.71609 6.10715 2.18184 9.08298 0C12.7473 0.929565 17.2507 2.09755 18.7775 2.68195C18.8909 2.72449 18.9905 2.75981 19.0683 2.79433" fill="#B57F57" fill-rule="evenodd" transform="translate(210.659 134.386)" />
            <path id="Fill 69" d="M5.44807 4.30989L5.42656 5.05994C5.42656 5.05994 3.6974 5.59129 3.4823 3.82094L3.11247 7.2627C3.11247 7.2627 1.08134 7.35251 1.21867 6.09105L1.25508 4.70987L0 5.53476L0.485657 3.5956C0.485657 3.5956 1.52315 4.31654 2.00218 4.56517C2.48782 4.81213 3.81572 3.16486 3.81572 3.16486L3.52531 0C3.58324 0.438217 4.06972 3.82094 5.44807 4.30989" fill="#B57F57" fill-rule="evenodd" transform="translate(228.819 143.466)" />
            <path id="Fill 71" d="M27.2404 15.2789L24.1554 18.2345L24.1554 20.2767L21.8906 18.6526L19.5967 21.2036L18.5143 19.4611L16.5263 23.6083L13.9773 20.9739L12.2581 22.9461L11.4373 19.3498L8.48633 22.3674L6.47572 19.0008L3.53207 20.9739L3.53207 19.2313L1.1752 19.5795L2.2366 18.0667L0 16.4427L2.59094 15.6271C2.59094 15.6271 1.0049 14.3726 0.439087 12.9576L1.64174 13.3066L1.40846 11.487L3.298 11.487C3.298 11.487 2.51265 10.6857 1.65627 9.312C1.91132 8.83821 1.93958 8.23882 1.59331 7.81352C2.23015 7.75072 2.85971 7.68077 3.49655 7.61876C3.12849 6.87946 2.75317 6.14016 2.38512 5.40166C3.31172 5.11627 4.27545 4.94854 5.25209 4.9072C5.37881 4.34279 5.06081 3.70763 4.52969 3.46438C6.13673 2.49534 8.019 2.00008 9.90207 2.04222C9.95775 1.36651 10.007 0.682858 10.0643 0L15.004 1.47065C15.7829 1.70754 17.0703 1.48416 16.8161 0.717836C17.3819 0.738505 17.9267 1.0382 18.2447 1.49847C18.5361 1.39354 18.7766 1.15665 18.8832 0.871261L19.5967 3.77758L20.5314 2.50964L21.8906 5.4581L23.3483 4.36346L23.3483 7.61081L25.7052 6.91444L24.764 10.9854L26.413 10.9854L24.1554 15.2789L27.2404 15.2789Z" fill="#FFDC15" fill-rule="evenodd" transform="translate(148.914 5.448)" />
            <path id="Fill 73" d="M58.1127 39.4633C47.6766 40.9382 46.9488 51.7567 46.9488 51.7567L36.2513 41.4641C26.969 32.5258 20.2623 29.6521 16.9016 28.0559C16.1085 27.6805 14.8425 26.6943 13.3288 25.3464C8.89256 21.3805 2.39803 14.3006 0 10.3784C5.51741 7.27812 11.3761 4.18597 13.1868 3.92223C16.9016 3.37694 17.46 0 17.46 0L20.6157 1.63103L25.9572 7.06534L33.1739 14.4001L35.2967 17.2374L55.2048 39.4633L58.1127 39.4633Z" fill="#CFD1D2" fill-rule="evenodd" transform="translate(229.727 192.499)" />
            <path id="Fill 75" d="M57.2047 22.3937C41.5826 24.8184 38.8084 41.7686 38.8084 41.7686L35.504 41.7686L29.611 36.4163L29.611 34.2043C29.611 34.2043 19.9456 24.301 12.2476 16.6098C12.0289 16.389 11.8094 16.1699 11.5964 15.9573L3.77884 9.86771L0.835976 9.86771C0.835976 9.86771 0.517242 9.69711 0 9.44162L4.72699 1.01952L16.0046 0L16.6203 0.424454L17.7669 1.21921L24.3257 5.78398C40.8394 16.1198 53.1435 19.0975 57.2047 22.3937" fill="#CFD1D2" fill-rule="evenodd" transform="translate(43.585 156.178)" />
            <path id="Fill 77" d="M0.134861 2.40868C0.134861 2.40868 1.17462 10.7577 0.134861 11.4655C-0.9049 12.1733 4.29469 9.72336 7.93423 10.1453C7.93423 10.1453 2.59944 12.0894 3.96734 13.7387C5.33444 15.3863 5.5076 18.6002 7.93423 16.6357C10.3609 14.672 14.6938 13.0366 18.1602 14.3006C18.1602 14.3006 12.4404 1.718 10.1877 0.696671C7.93423 -0.324661 2.5607 -0.570633 0.134861 2.40868" fill="#FF5858" fill-rule="evenodd" transform="translate(38.137 137.11)" />
            <path id="Fill 79" d="M36.3205 6.48947C33.3438 7.87379 28.8926 9.69258 26.4518 9.47966C22.5725 9.13477 15.6941 15.1623 14.9885 14.4733C14.2838 13.7843 9.69818 9.30682 16.7528 8.44576C16.7528 8.44576 5.64273 8.44576 3.52609 6.03459C1.40948 3.62421 0 2.24617 0 2.24617C0 2.24617 1.96054 0.613586 4.4223 0C5.79797 1.42595 8.54211 3.99504 10.9331 4.4845C14.2838 5.17351 18.1638 7.06772 18.1638 7.06772C18.1638 7.06772 29.9433 6.37242 36.3205 6.48947" fill="#FF5858" fill-rule="evenodd" transform="translate(285.116 233.359)" />
            <path id="Fill 81" d="M0 4.08102C0 4.08102 3.84912 9.40369 4.72479 8.69385C5.59967 7.98399 11.9337 8.69385 11.9337 8.69385L8.22429 10.2908L33.5964 30.8724C33.5964 30.8724 19.7733 11.7105 16.7982 9.58095L7.17381 0C7.17381 0 4.49171 3.39061 0 4.08102" fill="#FFFFFF" fill-rule="evenodd" transform="translate(244.255 197.039)" />
            <path id="Fill 83" d="M16.8874 25.314L20.7977 27.2404C20.7977 27.2404 27.5526 18.9786 33.5964 17.7119L25.2423 13.3336L20.9761 13.3336L22.9312 12.4382C22.9312 12.4382 5.90918 3.14305 3.19989 0C3.19989 0 1.42236 1.22476 0 4.58662L14.2211 19.6019C14.2211 19.6019 15.1099 18.4482 16.799 17.7119C16.799 17.7119 15.3288 24.5462 16.8874 25.314" fill="#FFFFFF" fill-rule="evenodd" transform="translate(59.021 159.81)" />
            <path id="Fill 85" d="M6.61139 0.0154572L14.5282 7.2641C14.5282 7.2641 4.53267 7.25313 0.981186 6.19925C-2.5695 5.14459 4.49976 -0.327728 6.61139 0.0154572" fill="#F4C7A2" fill-rule="evenodd" transform="translate(91.709 184.326)" />
            <path id="Fill 87" d="M23.6083 16.3442C23.6083 16.3442 11.9046 15.1429 9.4599 14.6227C7.01444 14.1016 2.12354 7.45071 2.12354 7.45071L7.36346 9.76218L0 0C0.321121 0.28508 0.635864 0.583603 0.943443 0.882141C4.67338 4.4994 7.54593 8.56804 9.2846 8.94972C9.74676 9.05424 10.5221 8.69316 11.4655 8.06125L23.6083 16.3442Z" fill="#B57F57" fill-rule="evenodd" transform="translate(102.605 179.786)" />
            <path id="Fill 89" d="M21.7923 8.08209L21.7923 8.08952C21.4799 8.3354 21.1961 8.55159 20.9391 8.72569C20.8213 8.8049 20.7105 8.87752 20.6062 8.93527C19.2959 9.71007 18.0133 10.4626 16.786 11.1994C13.0426 13.4355 9.81163 15.4975 7.89722 17.4506C6.98865 18.3697 5.55423 19.2386 3.94505 19.9763C7.25909 17.6898 10.4972 11.1994 10.4972 11.1994C7.72404 12.6178 0 11.1994 0 11.1994L11.711 0L21.7923 8.08209Z" fill="#B57F57" fill-rule="evenodd" transform="translate(114.41 196.131)" />
            <path id="Fill 91" d="M44.4926 27.2404L30.1064 25.1106L0 13.6202L2.40518 7.34392L18.9711 0L18.9711 6.8065C18.9711 6.8065 10.6211 8.96335 9.88306 11.121C9.14417 13.2778 22.8331 13.2778 22.8331 13.2778L21.645 10.2898C21.645 10.2898 31.9717 17.2993 34.3624 12.3216L35.8538 13.8789L43.282 21.6201C41.3758 20.4474 39.0404 19.0939 37.1062 18.1711L44.4926 27.2404Z" fill="#B57F57" fill-rule="evenodd" transform="translate(200.671 167.074)" />
            <path id="Fill 93" d="M1.0011 11.2673C2.93076 11.9161 5.83984 16.6608 8.1721 13.3869C8.1721 13.3869 6.7534 15.0026 5.80733 13.3869C4.50867 11.1712 4.517 4.40141 0 0C0.110031 0.373215 2.33894 8.12568 1.0011 11.2673" fill="#000523" fill-rule="evenodd" transform="translate(163.442 39.953)" />
            <path id="Fill 95" d="M1.81602 0C0.614899 1.37866 0.0467224 2.2543 0 2.72403C0.624451 1.83267 1.21918 0.924652 1.81602 0" fill="#000523" fill-rule="evenodd" transform="translate(162.534 177.062)" />
            <path id="Fill 97" d="M0 17.8137C1.13905 17.8919 2.31421 18.0119 3.50221 18.1602C11.5141 12.8469 26.6427 0.487579 27.2404 0C26.593 0.21196 8.62315 6.35214 0 17.8137" fill="#000523" fill-rule="evenodd" transform="translate(163.442 159.81)" />
            <path id="Fill 99" d="M24.5163 0C24.5163 0 6.83401 5.99342 0 11.7003C1.93535 12.0016 3.85593 12.3462 5.68298 12.7122C13.481 9.14526 24.1923 2.65573 24.5163 0" fill="#000523" fill-rule="evenodd" transform="translate(169.798 166.166)" />
            <path id="Fill 101" d="M4.16867 0.000549316C1.91766 0.0283813 0.657784 0.426086 0 0.977295C0.778847 2.19742 2.83856 4.07375 7.16219 7.02385C4.93217 9.4164 2.74574 12.143 2.04518 14.2213C1.45842 15.9648 1.30185 17.185 1.34462 18.0217C18.598 19.5568 56.2967 7.82561 56.2967 7.82561C56.2967 7.82561 11.7764 -0.0758057 4.16867 0.000549316" fill="#000523" fill-rule="evenodd" transform="translate(127.122 130.754)" />
            <path id="Fill 103" d="M2.84936 23.2158C2.71467 23.9201 2.63079 24.5961 2.58805 25.2363C2.38965 28.3595 1.36459 31.1703 0 33.5964C16.6534 30.2379 55.0305 0.974533 56.2967 0C20.0826 21.2311 7.25525 23.6361 2.84936 23.2158" fill="#000523" fill-rule="evenodd" transform="translate(122.582 142.558)" />
            <path id="Fill 105" d="M0 0L1.88277 1.41573C1.37332 1.82365 0.877602 2.19063 0.424675 2.49257C2.47779 10.0899 10.9728 17.9057 17.9105 21.7923C19.1627 21.0744 20.4722 20.342 21.8109 19.5888C22.3849 19.2716 23.1204 18.7087 23.9843 17.9691L27.2404 20.4127C23.9277 8.80188 0.72905 0.260986 0 0" fill="#000523" fill-rule="evenodd" transform="translate(113.502 185.234)" />
            <path id="Fill 107" d="M45.9119 38.0223C44.7553 35.9104 9.84477 12.6749 13.0179 0C13.0179 0 2.79881 10.5549 25.699 22.1731C25.0081 21.9619 -1.27032 13.7726 0.0479813 16.8988C1.3317 19.9551 26.2274 32.1787 27.9986 33.0516C26.5524 32.3964 9.50615 24.7219 9.84477 26.405C10.1906 28.1435 35.5658 43.9093 36.2712 44.3526C35.713 44.2048 14.09 38.4094 15.1341 40.8385C15.9521 42.7401 35.7347 57.3856 53.2539 62.0962C50.9824 60.0332 48.4721 57.8008 47.8085 55.8366C47.4209 54.6955 47.3018 53.5624 47.3573 52.4711C51.1932 55.7948 56.5332 59.6879 62.3429 61.7428L62.3372 61.7444L62.3581 61.7509C62.4579 61.7862 62.5584 61.8151 62.6582 61.8488C62.9839 61.9604 63.3097 62.0697 63.6378 62.1692C63.8003 62.2182 63.9644 62.2592 64.1277 62.3049C64.4245 62.3885 64.7205 62.4736 65.0181 62.5459C65.2393 62.5997 65.4621 62.6414 65.6841 62.6896C65.9286 62.741 66.1715 62.7988 66.416 62.8438C66.8866 62.9289 67.3587 62.9996 67.8308 63.0534C67.8308 63.0534 73.3534 67.694 82.4231 70.4187C83.0931 70.7495 83.6151 71.0105 83.9674 71.1856C84.3277 71.3622 84.5175 71.4538 84.5175 71.4538C91.8386 73.3762 94.653 72.8759 98.7076 70.5873C100.513 69.5667 101.338 68.208 101.697 67.0034C99.886 66.3064 93.8486 64.7646 90.0466 63.8138C89.6878 63.589 89.3283 63.3633 88.9752 63.1377C87.726 64.18 86.1962 65.2785 84.7782 65.8206C81.6051 67.0388 75.7873 63.0534 75.7873 63.0534C75.7873 63.0534 82.1335 60.026 78.8188 59.1459C76.2538 58.4649 67.7906 60.3929 64.0931 61.3004C60.0296 59.2518 53.7695 55.6447 51.1875 51.7524C51.1875 51.7524 56.9844 53.8652 59.5092 53.1609C62.0267 52.4567 37.7865 38.0721 32.7932 34.5155C33.5059 34.791 47.0396 40.0789 45.9119 38.0223" fill="#000523" fill-rule="evenodd" transform="translate(127.122 69.917)" />
            <path id="Fill 109" d="M133.325 73.6801C130.849 77.5534 120.233 78.2579 117.401 81.4275C114.571 84.5963 103.602 85.3008 102.54 84.5963C101.478 83.8927 100.063 75.44 96.8786 74.7356C93.6937 74.0311 90.1553 68.3971 90.1553 68.3971C86.6951 71.1579 85.909 66.989 81.6628 61.7068C77.4165 56.4246 55.4774 41.2527 55.4774 41.2527C52.6468 42.9853 48.047 36.7031 46.6313 34.2379C46.6313 34.2379 54.2393 33.7093 59.0166 28.0753L55.8591 26.4551L54.4798 25.0189C52.9253 25.8663 50.8195 26.9074 48.6015 27.7082C46.4223 25.6696 43.6135 22.7955 42.2075 20.3464C38.6731 18.5977 35.2937 16.5582 31.9184 14.5147C33.5278 16.8466 33.539 19.454 33.539 19.454C26.9973 20.7617 16.9786 16.2482 12.1996 13.8063C20.6437 7.33203 29.2855 0.0786438 29.2855 0.0786438C29.2855 0.0786438 14.9971 -2.14638 0 17.0739C0.361588 17.1438 0.694122 17.1301 0.98468 16.9823C1.87494 16.5389 4.46338 17.0916 6.27293 17.5703L6.27132 17.5735C6.50458 17.6306 6.72412 17.694 6.92912 17.7503C7.65796 17.9471 8.14626 18.1085 8.15352 18.1085L31.0547 25.9627C31.0547 25.9627 35.6618 31.0682 37.7853 35.646C39.908 40.2253 51.939 52.7264 55.3006 54.3112C58.6623 55.8952 65.3718 58.7484 74.657 67.6228L85.3569 77.8426C83.7855 83.5401 96.1489 94.1406 96.1489 94.1406C109.596 95.8098 107.869 89.9348 118.109 86.7097C123.657 84.9626 134.918 74.7356 133.325 73.6801" fill="#000523" fill-rule="evenodd" transform="translate(191.591 166.166)" />
            <path id="Fill 111" d="M33.6647 9.61004C24.8715 10.3247 2.29735 4.60822 0.887924 5.32289C-0.521507 6.03755 16.3884 13.8687 16.3884 13.8687C11.8162 13.5044 5.8836 12.0042 0 10.1601C6.38341 15.3477 12.7242 19.3276 17.4523 19.6772C19.2981 21.3714 21.4966 22.8643 23.9908 23.7004C27.7394 27.4228 31.8463 31.067 35.6937 33.5964C40.2032 26.1442 37.173 14.6119 47.2206 10.6816C57.1622 6.79458 64.3138 6.7734 64.4688 6.7734C64.194 6.58516 63.9232 6.40506 63.6557 6.23231C63.5303 6.15082 63.409 6.07748 63.2844 5.99925C63.1358 5.90554 62.9855 5.81019 62.8392 5.72218C62.8159 5.70914 62.7926 5.69366 62.7709 5.68063C62.7717 5.68144 62.7733 5.68307 62.7742 5.6847C61.3069 4.80869 59.9939 4.22197 58.9517 4.08669C52.7659 3.26528 52.7659 4.08669 52.7659 4.08669C52.7659 4.08669 43.0076 0.629097 36.8564 3.72243C31.7909 2.73641 26.4432 1.50755 21.2427 0C21.5946 2.07879 22.0253 3.70125 22.0253 4.2513C22.0253 6.03755 33.6647 9.61004 33.6647 9.61004" fill="#000523" fill-rule="evenodd" transform="translate(79.905 32.688)" />
            <path id="Fill 113" d="M6.64777 4.68557C7.34582 5.29037 10.5128 6.63392 13.4739 7.80822C13.5237 8.32158 13.5864 8.65205 13.5864 8.65205C13.5864 8.65205 15.0678 10.509 17.9653 13.5193C21.4918 17.331 26.8019 22.8664 32.5978 28.1484C32.3083 27.7898 28.2399 22.8311 28.2399 20.5667C28.2399 18.2245 48.1246 19.7718 48.1246 19.7718C30.2279 5.63528 31.0538 9.09563 29.8402 8.23014C29.8402 8.23014 19.1934 9.3138 19.5456 8.0264C19.7925 7.1192 23.2401 5.36818 26.2084 5.04412C23.8819 3.70057 21.6816 3.57464 21.6751 3.57464L18.8403 0.592359L18.8331 0.592359C18.6706 0.620433 13.3042 1.61185 12.9592 3.68693C12.6061 5.79651 8.1074 0.282741 8.1074 0.282741C6.62042 0.402256 3.72126 0.571504 2.41684 0.198518C-0.467033 -0.617238 0.0331802 1.34475 0.0331802 1.34475C0.0331802 1.34475 3.29182 1.75303 6.64777 4.68557" fill="#000523" fill-rule="evenodd" transform="translate(39.953 8.172)" />
            <path id="Fill 115" d="M16.5041 16.2873C16.0965 15.9864 3.00935 6.36998 1.62273 6.02673C0.216034 5.6771 -0.959549 7.07642 1.15169 8.59548C3.07275 9.97404 14.1818 16.3576 16.1944 17.519C11.7697 15.1467 6.41495 16.6721 5.84521 17.6946C5.25301 18.7443 9.94652 18.975 16.9832 20.7248C22.4069 22.0754 27.4736 30.3556 29.9644 33.5964C29.0705 31.7557 28.2335 30.1041 27.4664 28.7319C25.8976 25.9118 23.6323 23.0908 21.1126 20.431C21.0845 20.3959 21.05 20.3608 21.0075 20.3193C20.5709 19.8571 20.128 19.4021 19.6778 18.9543L19.6706 18.9471C19.811 18.1912 19.9803 17.4208 20.1769 16.6513C20.4305 16.3576 20.7194 16.1684 21.0356 16.0702C21.8661 11.8922 21.1407 4.96986 20.5926 4.93474C19.8672 4.89243 18.7422 14.5863 18.7422 14.5863C18.7422 14.5863 18.2703 11.8635 15.7169 7.3143C13.1547 2.76511 8.1033 0 8.1033 0L3.43144 4.76631C9.25 6.85291 16.2794 15.9936 16.5041 16.2873" fill="#000523" fill-rule="evenodd" transform="translate(140.742 34.504)" />
            <path id="Fill 117" d="M1.15315 28.987C1.15315 28.987 2.0116 30.0493 2.29102 29.8134C2.56963 29.5775 2.2579 25.9183 3.41676 25.3278C4.57562 24.7373 6.47421 22.0159 7.18245 21.8221C7.89069 21.6274 8.47133 21.9562 9.51469 21.8221C10.1398 21.7413 11.9229 19.7477 12.0456 17.6442C12.1506 18.612 12.1635 19.8495 11.977 21.4319C11.977 21.4319 10.5476 26.1744 9.51469 25.5047C8.14668 24.6194 6.67046 25.5936 6.49278 26.6558C6.31673 27.718 7.82123 31.122 5.08035 35.5696C4.03212 37.2627 3.5799 39.1602 3.41676 40.8605C4.16376 39.787 6.10757 39.6408 6.28604 37.9C6.28604 37.9 7.30278 37.2692 7.12592 36.9146C7.12592 36.9146 7.37384 36.026 8.26378 35.5575C8.26378 35.5575 9.29666 36.3354 10.2092 36.1197C11.0919 35.9105 10.6832 33.8563 10.9425 31.996C11.0862 30.9653 10.9594 29.7189 10.8205 28.8214C10.7147 28.1405 10.8859 27.4434 11.3196 26.9078C12.6109 25.3149 13.1576 22.7365 13.3087 20.4303C13.3224 20.3099 13.7447 19.6936 13.752 19.5732C14.197 18.9989 14.6896 19.0595 15.0788 18.4431C14.4271 17.6782 16.1909 15.0788 17.0259 14.5262C16.6366 14.2855 16.6827 14.3251 16.2934 14.0836C16.5769 13.6732 16.7432 12.8129 17.0259 12.4018C16.9693 12.4018 17.2964 11.594 17.2471 11.5803L17.0259 10.808C17.7487 9.56164 16.488 9.97926 16.2474 8.55596C15.6167 8.66178 16.7828 7.48243 16.2934 7.88632C16.8248 7.10762 15.1071 7.48647 14.6468 6.66496C14.9512 6.10517 15.0934 5.46056 15.0651 4.82323C14.7816 4.78769 14.4982 4.75942 14.2228 4.73114C14.2293 4.12208 14.2438 3.52029 14.2583 2.91769C13.8118 3.05905 13.3369 3.1164 12.8701 3.06632C12.6222 2.27308 12.367 1.47985 12.1191 0.693879C11.9067 0.941867 11.7016 1.19712 11.4892 1.4443C11.2203 0.970139 10.9578 0.488705 10.7026 0L10.2988 2.39344L11.0216 1.87C11.0216 1.87 11.574 3.64065 11.0216 5.93473C11.0216 5.93473 12.3315 5.7651 12.6012 5.22631C12.6012 5.22631 12.3315 9.12221 11.7153 10.0148L13.0397 10.808C13.0397 10.808 11.6588 14.3493 11.0216 14.6183C11.0216 14.6183 11.2873 14.8784 11.5578 15.5432C11.36 16.2864 11.0135 17.3211 10.4765 18.1273L9.17876 17.4189L8.47052 19.6621L7.05405 17.1232L7.05405 20.4303L5.75548 20.4303L5.75548 22.3762L4.55705 23.2026C4.55705 23.2026 5.40176 18.0086 2.80544 18.0086C0.209106 18.0086 -0.49913 24.5015 0.327011 26.7447L1.15315 28.987Z" fill="#000523" fill-rule="evenodd" transform="translate(168.89 10.896)" />
            <path id="Fill 119" d="M85.7028 60.0929C85.7028 60.0929 83.2263 52.5361 81.1025 51.655C78.9788 50.7731 70.8397 49.1709 70.8397 49.1709L76.1479 54.8295C76.1479 54.8295 70.6056 52.3607 67.4777 50.596C67.4777 50.596 74.9871 32.7168 86.8071 33.4579C86.0426 32.7103 85.2427 31.9829 84.408 31.3126C83.4596 30.5514 82.072 29.803 80.2808 28.9774C74.8741 31.4824 65.9771 36.8311 65.0003 45.269L58.4531 42.6586C58.4531 42.6586 57.3916 36.9784 58.4458 32.3289C58.2981 32.555 55.962 36.2099 55.7917 38.2554L39.4643 20.5009C40.261 15.0097 43.5294 12.1821 44.9557 10.238L42.4001 8.47411C43.5262 7.99452 44.0565 7.39423 43.3559 6.63943C34.9835 2.90007 31.5577 8.43871 28.9036 7.55678C26.2495 6.67484 21.8252 11.437 20.4093 7.20352C18.9943 2.97089 8.37791 20.2571 7.49241 16.1999C6.91283 13.5396 10.5219 5.327 13.0775 0C11.3363 1.67213 9.67994 3.25253 8.67497 4.50139C5.84328 8.02992 -3.12399 26.6076 1.12273 25.4288C5.36945 24.2579 17.9611 15.8611 20.9413 16.2562C23.9207 16.6585 28.0189 18.8457 28.0189 18.8457L30.9636 18.8457L38.7838 24.9065C38.9969 25.1182 39.2157 25.337 39.4352 25.5559C47.136 33.2117 56.8039 43.0682 56.8039 43.0682L56.8039 45.269L62.6998 50.596L66.0053 50.596C66.0053 50.596 74.0241 55.7685 78.5049 57.4197C82.9922 59.0637 90.3031 70.8249 93.368 70.8249C94.7274 70.8249 96.8294 70.4081 98.9733 69.7241C94.7694 68.567 87.8693 65.8295 85.7028 60.0929" fill="#000523" fill-rule="evenodd" transform="translate(16.344 147.098)" />
            <path id="Fill 121" d="M0 0L14.5282 0.514648C14.5282 0.514648 8.60924 6.18196 5.02219 6.35272C1.43514 6.52505 0 0 0 0" fill="#F4C7A2" fill-rule="evenodd" transform="translate(102.605 197.947)" />
            <path id="Fill 123" d="M39.2529 27.9569C34.8739 35.4285 22.8965 36.6929 12.5009 30.7809C2.10524 24.8689 -2.77267 14.0188 1.60797 6.54802C5.98701 -0.923599 17.9643 -2.18881 28.36 3.72322C38.7556 9.63527 43.6327 20.4853 39.2529 27.9569" fill="#010723" fill-rule="evenodd" transform="translate(219.739 239.715)" />
            <path id="Fill 125" d="M0 0.145782L0.571716 4.88405C0.571716 4.88405 6.1808 6.46457 9.38478 9.98813L13.6202 9.98813C13.6202 9.98813 12.7579 4.50491 9.72859 1.65981C9.72859 1.65981 5.95212 -0.583374 0 0.145782" fill="#CFD1D2" fill-rule="evenodd" transform="translate(237.899 242.439)" />
            <path id="Fill 127" d="M1.18977 0L5.47495 0C5.47495 0 8.28285 4.34657 9.08012 7.66383C9.08012 7.66383 4.28435 8.80745 0 7.66383C0 7.66383 1.78508 1.25787 1.18977 0" fill="#CFD1D2" fill-rule="evenodd" transform="translate(246.979 253.335)" />
            <path id="Fill 129" d="M0 0C0 0 1.89554 3.52898 2.35332 6.52383C2.35332 6.52383 6.44194 11.7883 6.93785 13.6202C6.93785 13.6202 8.74269 10.8313 7.98735 8.81306C7.23204 6.79404 2.03625 0.414307 0 0" fill="#CFD1D2" fill-rule="evenodd" transform="translate(250.611 246.071)" />
            <path id="Fill 131" d="M9.60918 1.83492C9.60918 1.83492 14.2407 2.01665 18.1602 2.72403C18.1602 2.72403 10.6998 -2.26906 0 1.2648L9.60918 1.83492Z" fill="#CFD1D2" fill-rule="evenodd" transform="translate(227.911 239.715)" />
            <path id="Fill 133" d="M10.8961 0.63649L10.8961 5.46051L3.65552 8.1721C3.65552 8.1721 0.547836 5.68379 0.0691681 4.40349C-0.4095 3.1248 1.75311 0.63649 1.75311 0.63649C1.75311 0.63649 4.6235 -0.795609 10.8961 0.63649" fill="#CFD1D2" fill-rule="evenodd" transform="translate(226.095 242.439)" />
            <path id="Fill 135" d="M8.01674 0.0219879C8.01674 0.0219879 16.1771 2.55167 17.2522 5.30969L15.1528 12.7122C15.1528 12.7122 5.41672 12.007 0 3.66452C0 3.66452 5.37814 -0.3302 8.01674 0.0219879" fill="#CFD1D2" fill-rule="evenodd" transform="translate(229.727 248.795)" />
            <path id="Fill 137" d="M0 0C0 0 6.50058 2.27025 8.1721 4.19952L6.31419 9.98814C6.31419 9.98814 5.20012 5.98744 2.97198 4.99406C0.742996 4.00069 0 0 0 0" fill="#FFFFFF" fill-rule="evenodd" transform="translate(237.899 249.703)" />
            <path id="Fill 139" d="M0.436707 0.337143C-0.393768 0.952072 -0.0814514 3.43178 1.73329 4.2012C3.54803 4.97063 6.40068 6.2912 7.52455 8.1721L10.8961 8.1721C10.8961 8.1721 10.8961 3.87605 7.72646 1.11964C7.72646 1.11964 1.89734 -0.743591 0.436707 0.337143" fill="#FFFFFF" fill-rule="evenodd" transform="translate(240.623 243.347)" />
            <path id="Fill 141" d="M0 0C0 0 2.72485 3.98274 2.80782 6.48734L6.2291 11.8042C6.2291 11.8042 7.78561 4.84019 0 0" fill="#FFFFFF" fill-rule="evenodd" transform="translate(251.519 246.071)" />
            <path id="Fill 143" d="M14.5282 2.72403C14.5282 2.72403 1.43944 1.4156 0.120743 0.570786C-1.19879 -0.273239 8.60448 -0.617188 14.5282 2.72403" fill="#FFFFFF" fill-rule="evenodd" transform="translate(231.543 239.715)" />
            <path id="Fill 145" d="M4.54005 0.621567L4.54005 4.54005C4.54005 4.54005 0.424362 3.36603 0.0231018 1.14424C-0.376511 -1.07832 4.54005 0.621567 4.54005 0.621567" fill="#FFFFFF" fill-rule="evenodd" transform="translate(231.543 242.439)" />
            <path id="Fill 147" d="M0 0L0 4.51291C0 4.51291 3.81828 4.78976 4.40875 3.57507C4.99846 2.36038 3.41074 0 3.41074 0L0 0Z" fill="#FFFFFF" fill-rule="evenodd" transform="translate(248.795 254.243)" />
            <path id="Fill 149" d="M0.327223 0C0.327223 0 0.804356 1.05997 1.75459 2.99947C2.7008 4.94301 4.10237 7.78874 6.10117 11.2834C8.09836 14.7781 10.6259 18.9564 13.8135 23.5459C17.0115 28.1231 20.8254 33.1479 25.4097 38.2382C27.685 40.7966 30.1545 43.3721 32.8351 45.8893C35.5319 48.3863 38.3761 50.91 41.5162 53.1756C43.0701 54.3278 44.6941 55.4202 46.3931 56.3911C48.0945 57.3459 49.8595 58.2449 51.6931 58.7748C53.4711 59.2886 55.5118 59.4505 56.9706 58.7287C58.4504 58.0426 59.2821 56.1896 59.8092 54.1773C60.3669 52.1577 60.6724 49.9399 61.5638 47.7536C62.0095 46.6702 62.6688 45.5794 63.6472 44.7703C64.6136 43.9426 65.8556 43.5202 67.0412 43.3859C68.2461 43.2637 69.393 43.3389 70.5689 43.589C71.7125 43.8495 72.8094 44.2249 73.8669 44.6765C75.9842 45.5762 77.9572 46.7381 79.9092 47.9259C81.8597 49.1194 83.7601 50.3987 85.6429 51.707C87.5353 53.0049 89.4116 54.3303 91.283 55.671C95.0405 58.3274 98.8003 61.0032 102.587 63.6256C110.174 68.8453 117.932 73.79 125.888 77.9239C129.876 79.9621 133.917 81.802 138.028 83.2188C142.161 84.6478 146.327 85.8769 150.372 86.3089C152.381 86.5185 154.359 86.4796 156.053 86.016C157.764 85.5492 159.046 84.6097 160.312 83.1387C160.96 82.4121 161.611 81.5593 162.498 80.7073C163.363 79.8569 164.574 79.055 165.884 78.6942C167.196 78.3317 168.466 78.3333 169.622 78.4935C170.332 78.6011 170.826 78.7379 171.375 78.8924C171.906 79.0477 172.412 79.2217 172.907 79.4013C174.873 80.1336 176.674 80.9735 178.435 81.8102C180.192 82.6516 181.895 83.4956 183.558 84.3435C186.884 86.0306 190.083 87.6408 193.191 89.094C199.386 92.0344 205.222 94.3355 210.552 95.7507C213.219 96.4434 215.756 96.911 218.119 97.1093C220.481 97.3205 222.661 97.2484 224.609 97.0251C228.518 96.5413 231.392 95.1779 233.188 94.058C234.096 93.5022 234.755 93.0094 235.186 92.6639C235.619 92.3159 235.841 92.1355 235.841 92.1355L236.083 92.3936C236.083 92.3936 235.875 92.5984 235.472 92.994C235.067 93.3881 234.444 93.9545 233.565 94.6187C231.818 95.9304 228.922 97.5867 224.839 98.4258C220.77 99.2818 215.646 99.1313 210.037 97.9937C204.411 96.8803 198.311 94.7296 191.9 91.9875C188.698 90.6054 185.413 89.0713 182.037 87.4838C178.668 85.923 175.2 84.1639 171.666 82.8879C171.229 82.7382 170.791 82.595 170.363 82.4785C169.952 82.3636 169.473 82.2592 169.191 82.2196C168.363 82.1103 167.569 82.1524 166.922 82.3474C166.269 82.54 165.707 82.8782 165.098 83.4608C164.492 84.032 163.867 84.8217 163.133 85.6527C162.398 86.4845 161.524 87.3608 160.478 88.0745C159.436 88.7938 158.246 89.3246 157.045 89.6539C154.626 90.3028 152.238 90.2154 149.967 89.9525C145.416 89.3675 141.122 87.9782 136.889 86.4287C132.619 84.8517 128.465 82.8936 124.432 80.683C116.35 76.2683 108.814 70.7929 101.47 65.1751C94.095 59.6058 87.0042 53.6465 79.3483 48.8411C77.4357 47.6508 75.4659 46.565 73.4341 45.7186C72.4169 45.3043 71.3821 44.9467 70.3359 44.7485C69.3196 44.5632 68.2122 44.5292 67.2088 44.6724C66.1997 44.8245 65.2656 45.1935 64.5636 45.84C63.8584 46.4841 63.378 47.3668 63.0411 48.3313C62.3649 50.2765 62.1715 52.4482 61.7073 54.6369C61.4711 55.7341 61.1761 56.8588 60.6329 57.9584C60.1074 59.0516 59.2241 60.118 58.0723 60.7653C56.9271 61.4231 55.6585 61.6545 54.4834 61.7031C53.3026 61.7403 52.1412 61.6141 51.0387 61.3503C46.651 60.2709 43.0475 58.0078 39.7011 55.7236C33.0866 50.9958 27.7599 45.5018 23.1619 40.2246C18.6203 34.8851 14.8733 29.6605 11.8638 24.8429C10.3446 22.443 9.01555 20.141 7.8477 17.9806C6.6726 15.8243 5.65305 13.812 4.79712 11.9655C3.07073 8.27747 1.87468 5.31441 1.1082 3.27863C0.359461 1.22989 0 0.133514 0 0.133514L0.327223 0Z" fill="#000523" fill-rule="evenodd" transform="translate(19.068 179.786)" />
            <g id="Group 153" transform="translate(214.291 226.095)">
                <path id="Clip 152" d="M0 0L124.183 0L124.183 54.7558L0 54.7558L0 0Z" transform="translate(0.41 0.506)" />
                <g clip-path="url(#clip_path_2)">
                    <path id="Fill 151" d="M4.12857 27.2074C4.12857 27.2074 3.70083 26.5481 3.03707 25.2335C2.387 23.9157 1.44613 21.9507 0.741287 19.2741C0.393295 17.9378 0.103302 16.4222 0.0219429 14.7442C-0.0602218 13.071 0.0710807 11.2137 0.712288 9.34268C1.31161 7.46045 2.51588 5.6345 4.16562 4.1382C5.821 2.65396 7.93714 1.52269 10.2289 0.791823C12.5827 0.0537237 15.1523 -0.163364 17.7566 0.119654C20.3593 0.389808 22.987 1.08771 25.5421 2.11204C30.6565 4.18001 35.5493 7.37522 40.0942 11.2137C44.6342 15.0666 48.9067 19.5241 52.7242 24.4657C54.6518 26.9172 56.395 29.5777 58.1059 32.1618C59.8346 34.7532 61.5996 37.3318 63.4321 39.8468C65.2631 42.3602 67.1626 44.8197 69.2473 47.0525C71.3232 49.2515 73.6359 51.3372 76.2643 52.2891C77.5677 52.7772 78.9226 52.8536 80.2002 52.5279C81.481 52.1991 82.6675 51.4409 83.7188 50.5106C85.8792 48.5665 87.5862 46.246 88.9169 43.7029C89.5992 42.4366 90.18 41.1187 90.9009 39.7937C91.2658 39.1344 91.6718 38.4687 92.2019 37.8504C92.7303 37.2369 93.4134 36.6861 94.1851 36.3428C95.7543 35.6449 97.3646 35.7398 98.7879 35.9424C99.5113 36.0461 100.208 36.2013 100.89 36.375C101.235 36.4546 101.568 36.5575 101.902 36.6532L102.402 36.7979L102.843 36.9C103.526 37.0954 104.099 37.1115 104.686 37.175C105.306 37.1581 105.928 37.1878 106.545 37.0833C107.783 36.9619 108.988 36.6162 110.145 36.2214C112.454 35.3812 114.558 34.184 116.403 32.8139C118.239 31.4294 119.812 29.8543 121.051 28.1811C122.281 26.5135 123.196 24.6956 123.374 22.8842C123.585 21.0847 123.014 19.3609 121.924 18.191C120.87 16.9802 119.499 16.2855 118.292 15.6993C117.656 15.4654 117.071 15.188 116.486 15.0232C115.904 14.8519 115.356 14.6911 114.848 14.5415C113.807 14.3293 112.926 14.113 112.199 14.0077C110.741 13.8034 109.964 13.6949 109.964 13.6949C109.964 13.6949 110.746 13.764 112.215 13.8935C112.948 13.9618 113.843 14.1339 114.903 14.2947C115.425 14.4209 115.986 14.556 116.585 14.6991C117.185 14.8447 117.792 15.1028 118.452 15.3206C119.714 15.8762 121.163 16.5339 122.357 17.7971C123.585 19.0103 124.326 20.9456 124.16 22.9541C124.034 24.9754 123.117 26.955 121.886 28.768C120.639 30.5884 119.013 32.2591 117.13 33.757C115.233 35.2349 113.062 36.543 110.619 37.4974C109.39 37.9485 108.102 38.3513 106.731 38.5217C106.052 38.6488 105.347 38.6415 104.639 38.6705C103.901 38.6206 103.131 38.5732 102.508 38.4059L101.959 38.2886L101.48 38.1615C101.159 38.0779 100.838 37.9862 100.514 37.9203C99.869 37.7716 99.2165 37.6429 98.5672 37.5657C97.2751 37.4017 95.95 37.4098 94.9189 37.9155C93.8838 38.3971 93.1452 39.4367 92.4951 40.6556C91.8482 41.8753 91.2666 43.2341 90.5707 44.5656C89.2141 47.2463 87.3606 49.8449 85.0366 51.9764C83.8436 53.0546 82.4138 54.0242 80.7214 54.4841C79.0297 54.936 77.1794 54.809 75.5853 54.2156C73.975 53.6463 72.5532 52.7563 71.2732 51.7561C69.9916 50.7534 68.8252 49.639 67.7297 48.4764C65.5386 46.1463 63.5868 43.6394 61.7188 41.0898C59.8668 38.5274 58.1003 35.9215 56.3716 33.3092C54.6437 30.6784 52.9843 28.1216 51.1026 25.7079C47.3786 20.8733 43.2808 16.4278 38.8842 12.6255C34.4796 8.84981 29.8155 5.62485 24.9549 3.53196C22.5286 2.49315 20.0484 1.77676 17.6052 1.4656C15.1701 1.13997 12.7462 1.29917 10.5898 1.92229C8.38583 2.56069 6.42596 3.58744 4.83019 4.90363C3.25537 6.23028 2.07928 7.86407 1.45096 9.6056C0.783175 11.3351 0.585013 13.1047 0.60354 14.7273C0.621262 16.3546 0.847618 17.8493 1.14003 19.1776C1.7474 21.8333 2.55052 23.8434 3.13937 25.1845C3.73466 26.5264 4.12857 27.2074 4.12857 27.2074" fill="#000523" fill-rule="evenodd" transform="translate(0.41 0.506)" />
                </g>
            </g>
            <path id="Fill 154" d="M200.644 123.046C200.644 123.046 200.65 123.135 200.659 123.309C200.662 123.414 200.666 123.543 200.671 123.697C200.667 123.834 200.663 123.991 200.659 124.172C200.61 124.885 200.55 125.94 200.097 127.274C199.654 128.586 198.786 130.246 197.144 131.561C195.518 132.889 193.256 133.659 190.856 133.883C190.26 133.898 189.65 133.914 189.023 133.931L188.551 133.941L188.086 133.899C187.774 133.87 187.459 133.841 187.14 133.812C185.846 133.744 184.57 133.447 183.222 133.19C181.936 132.943 180.603 132.602 179.239 132.331C178.567 132.205 177.882 132.076 177.187 131.946C176.489 131.827 175.774 131.739 175.05 131.631C174.326 131.527 173.602 131.493 172.859 131.416C172.491 131.392 172.13 131.397 171.761 131.385C171.392 131.375 171.019 131.362 170.667 131.4C169.936 131.426 169.238 131.529 168.605 131.695C167.99 131.877 167.473 132.138 167.173 132.46C166.894 132.788 166.718 133.244 166.67 133.898C166.668 134.067 166.648 134.226 166.655 134.405L166.693 134.958C166.703 135.142 166.745 135.346 166.77 135.54L166.812 135.837C166.811 135.822 166.858 136.217 166.841 136.09C166.842 136.158 166.846 136.048 166.844 136.283C166.839 136.452 166.811 136.624 166.768 136.785C166.731 136.9 166.687 137.005 166.637 137.111C166.435 137.507 166.169 137.748 165.969 137.896C165.861 137.977 165.759 138.042 165.67 138.09C165.573 138.147 165.484 138.192 165.404 138.227C165.067 138.379 164.775 138.467 164.502 138.534C163.952 138.671 163.454 138.737 162.956 138.791C161.968 138.894 161.01 138.92 160.047 138.926C156.21 138.918 152.318 138.56 148.296 138.092C144.279 137.612 140.153 136.986 135.931 136.232C127.491 134.715 118.664 132.715 109.691 130.041C105.207 128.698 100.687 127.183 96.1944 125.407C91.7061 123.627 87.2324 121.599 82.9414 119.1C80.7979 117.85 78.7052 116.471 76.7228 114.909C75.7307 114.117 74.783 113.308 73.8522 112.389C72.9858 111.504 72.1065 110.66 71.2594 109.688C69.5588 107.8 67.9765 105.81 66.6858 103.571C65.3991 101.344 64.4409 98.8461 64.1453 96.2089C64.0374 94.8923 64.0399 93.5547 64.271 92.2551C64.498 90.9611 64.8475 89.6922 65.3298 88.496C66.2816 86.0932 67.5804 83.915 68.8534 81.7902C70.1232 79.6622 71.4003 77.5729 72.3529 75.3689C73.3215 73.1705 73.952 70.88 74.0019 68.4998C74.0172 66.2239 73.493 63.8194 72.7925 61.5653C72.0823 59.291 71.1467 57.0894 70.0693 54.9767C67.925 50.744 65.2847 46.8169 62.3344 43.2591C59.401 39.6835 56.1391 36.4813 52.6703 33.6962C49.2087 30.8998 45.5192 28.5381 41.6968 26.7188C37.8801 24.8874 33.9443 23.5773 30.0317 22.8369C28.0775 22.4619 26.1281 22.2389 24.2092 22.1395C23.251 22.0417 22.2977 22.1152 21.3548 22.0942C20.4038 22.0982 19.4625 22.1015 18.5309 22.1047C16.67 22.1031 14.8156 21.9503 13.0482 21.6723C12.1593 21.5519 11.3009 21.3029 10.4417 21.1276C10.0238 20.995 9.60673 20.8625 9.19285 20.7315C8.77978 20.6006 8.3667 20.4753 7.97859 20.2886C7.58404 20.1173 7.19351 19.9476 6.8054 19.7794C6.42615 19.5903 6.06702 19.3672 5.69984 19.1644L5.15793 18.8524L4.65548 18.4847C4.32937 18.2293 3.97186 18.0199 3.68118 17.7322C2.42585 16.6823 1.47168 15.3577 0.838779 13.9578C0.209909 12.5515 -0.0574226 11.0434 0.0102158 9.60555C0.0995941 8.16611 0.509447 6.81557 1.11497 5.638C2.32359 3.24889 4.38976 1.69792 6.38347 0.850901C8.42065 0.0394459 10.4224 -0.103609 12.0989 0.0596514C13.7801 0.239885 15.1796 0.611667 16.2674 1.02063C16.8094 1.23561 17.2941 1.40938 17.6999 1.58638C18.0969 1.7852 18.431 1.95251 18.7 2.08748C19.2371 2.35662 19.5149 2.49644 19.5149 2.49644C19.5149 2.49644 19.2355 2.35985 18.6952 2.09718C18.4246 1.96463 18.0896 1.80137 17.6911 1.6074C17.2828 1.43444 16.7973 1.26633 16.2546 1.05781C15.1643 0.661777 13.764 0.307775 12.0916 0.146939C10.4232 0.00307655 8.44159 0.168761 6.44144 0.991531C4.48478 1.84905 2.47577 3.3968 1.3211 5.74387C0.742958 6.90125 0.359678 8.22107 0.287209 9.61849C0.236481 11.0159 0.513474 12.4715 1.13671 13.8237C1.76397 15.1685 2.6964 16.4391 3.92596 17.4437C4.2102 17.7201 4.56288 17.9189 4.88094 18.163L5.37212 18.5162L5.90437 18.8136C6.2643 19.0068 6.61537 19.221 6.98657 19.4004C7.36905 19.5604 7.75233 19.7221 8.13883 19.8845C8.51889 20.0639 8.92552 20.1811 9.33216 20.3048C9.73879 20.4293 10.1478 20.5537 10.5593 20.6798C11.4056 20.8414 12.2478 21.0766 13.1247 21.1857C14.8785 21.4395 16.6676 21.5697 18.5261 21.5519C19.4553 21.5373 20.3942 21.5236 21.3411 21.509C22.2969 21.5187 23.2639 21.4355 24.2366 21.5236C26.1844 21.602 28.1653 21.8065 30.1541 22.1653C34.1351 22.8725 38.1491 24.1584 42.0455 25.9753C45.95 27.7816 49.7224 30.1376 53.2685 32.9365C56.8219 35.7248 60.1692 38.9399 63.1912 42.539C66.2284 46.1218 68.9597 50.0845 71.203 54.3931C72.3303 56.5446 73.3175 58.7947 74.0817 61.1491C74.8345 63.5155 75.4239 65.9321 75.4352 68.5693C75.4127 71.1015 74.7443 73.6563 73.7459 75.9718C72.7635 78.3124 71.472 80.472 70.2287 82.6098C68.9806 84.7443 67.7543 86.8699 66.8984 89.1071C66.0384 91.3377 65.6342 93.6953 65.9007 96.0173C66.189 98.3361 67.0618 100.577 68.2801 102.634C69.496 104.694 71.0412 106.597 72.6709 108.365C73.4584 109.256 74.3739 110.118 75.2452 110.988C76.081 111.795 77.0183 112.583 77.9596 113.316C79.8631 114.781 81.893 116.089 83.985 117.278C88.1721 119.655 92.5782 121.596 97.0101 123.296C101.447 124.993 105.922 126.439 110.367 127.716C119.262 130.259 128.028 132.143 136.391 133.55C140.574 134.249 144.659 134.822 148.616 135.249C152.566 135.666 156.412 135.971 160.022 135.936C160.918 135.922 161.804 135.884 162.626 135.788C163.033 135.741 163.434 135.678 163.757 135.591C163.921 135.551 164.058 135.5 164.129 135.466C164.203 135.458 164.161 135.358 163.916 135.751C163.888 135.806 163.868 135.859 163.852 135.923C163.817 136.028 163.799 136.146 163.802 136.259C163.816 136.441 163.804 136.273 163.805 136.287C163.785 136.104 163.827 136.444 163.817 136.374L163.759 136.011C163.725 135.764 163.675 135.535 163.656 135.277L163.595 134.513C163.583 134.254 163.601 133.975 163.607 133.708C163.659 132.628 164.013 131.362 164.859 130.394C165.077 130.179 165.303 129.968 165.533 129.766C165.761 129.563 166.014 129.454 166.257 129.302C166.753 128.977 167.236 128.869 167.724 128.685C168.684 128.416 169.605 128.286 170.481 128.242C170.929 128.194 171.354 128.201 171.776 128.208C172.198 128.215 172.623 128.207 173.033 128.231C173.843 128.3 174.656 128.335 175.429 128.437C176.202 128.543 176.965 128.63 177.711 128.748C178.453 128.879 179.185 129.007 179.903 129.134C181.312 129.399 182.624 129.719 183.911 129.951C185.136 130.168 186.313 130.434 187.422 130.471C187.701 130.494 187.976 130.518 188.247 130.54L188.652 130.574L189.043 130.558C189.558 130.541 190.06 130.522 190.551 130.505C192.466 130.295 193.985 129.706 194.971 128.88C195.969 128.063 196.488 127.058 196.781 126.178C197.078 125.293 197.111 124.53 197.14 124.049C197.143 123.928 197.145 123.821 197.147 123.73C197.144 123.656 197.141 123.595 197.139 123.545C197.14 123.459 197.124 123.333 197.127 123.348L200.644 123.046Z" fill="#000523" fill-rule="evenodd" transform="translate(24.516 14.528)" />
            <path id="Fill 156" d="M25.0699 0C25.0699 0 24.7682 0.0576935 24.2019 0.165848C23.6357 0.276413 22.8121 0.449478 21.7718 0.701859C20.7291 0.939011 19.4825 1.30196 18.0676 1.73782C16.6673 2.21693 15.0979 2.78018 13.4703 3.55975C11.8483 4.34575 10.1617 5.31921 8.53888 6.54025C6.92906 7.77811 5.44623 9.32204 4.23199 11.1159L3.77493 11.7921C3.63579 12.0261 3.51768 12.2745 3.38744 12.5156L3.00319 13.2463C2.95061 13.3529 2.84624 13.5268 2.83734 13.578L2.67474 13.9866L2.51215 14.3969L2.41183 14.763C2.34874 15.0058 2.26703 15.2365 2.23386 15.5073C2.12384 16.0281 2.07854 16.5625 2.05589 17.0993C2.01544 19.2618 2.76939 21.4667 3.92378 23.4513C5.06036 25.4567 6.58849 27.2771 8.2428 28.9171C9.9222 30.5388 11.7035 32.0314 13.5358 33.3422C15.3713 34.6482 17.2069 35.8436 19.01 36.8827C20.8189 37.9091 22.5525 38.8537 24.193 39.6541C25.8295 40.4601 27.3552 41.1555 28.7159 41.7613C30.0847 42.3421 31.2787 42.8589 32.2753 43.2515C34.2718 44.0415 35.4125 44.4926 35.4125 44.4926C35.4125 44.4926 35.1148 44.4181 34.5558 44.2803C33.9984 44.1344 33.1692 43.9558 32.1378 43.6481C31.0991 43.3629 29.8468 42.9839 28.4206 42.5136C26.9993 42.0297 25.3968 41.468 23.6866 40.7558C21.9668 40.0667 20.1369 39.2303 18.2423 38.26C16.3461 37.2914 14.3893 36.1713 12.4575 34.8605C10.5289 33.5481 8.58499 32.0891 6.80367 30.3697C5.03204 28.6463 3.36075 26.7162 2.07288 24.4881C0.812531 22.2663 -0.0700531 19.6976 0.00437927 17.0505C0.0375366 16.3935 0.0957947 15.7381 0.245438 15.0995C0.297211 14.7814 0.413712 14.4514 0.514832 14.1285L0.671768 13.6485L0.847305 13.2439L1.02124 12.8401C1.11264 12.6166 1.17737 12.5461 1.25664 12.3923L1.70804 11.5919C1.86174 11.3275 2.00169 11.0574 2.1651 10.8019L2.69334 10.0664C4.08476 8.105 5.81432 6.5162 7.59969 5.27835C9.39557 4.04369 11.2432 3.15034 12.9833 2.4557C14.7234 1.75304 16.3842 1.32199 17.8508 0.964645C19.3263 0.638565 20.6223 0.419037 21.695 0.291641C22.7628 0.141815 23.6146 0.0961456 24.1874 0.052887C24.7625 0.0176239 25.0699 0 25.0699 0" fill="#000523" fill-rule="evenodd" transform="translate(194.315 225.187)" />
            <path id="Fill 158" d="M1.28688 0C1.28688 0 1.18507 0.129578 0.994507 0.373138C0.818588 0.625732 0.567764 1.00626 0.398361 1.55162C0.220825 2.08878 0.150787 2.78995 0.30307 3.56166C0.458633 4.33173 0.826736 5.15263 1.32922 5.98257C2.35374 7.64326 3.97847 9.28262 5.81738 10.8949C7.66364 12.5089 9.77213 14.072 11.9409 15.5448C14.0941 17.0423 16.3093 18.4513 18.417 19.7232C20.5255 20.9919 22.4988 22.1737 24.218 23.1381C27.6425 25.0907 29.9644 26.3323 29.9644 26.3323C29.9644 26.3323 29.3585 26.0773 28.3144 25.591C27.2736 25.0981 25.7792 24.4068 24.0274 23.494C22.2773 22.5804 20.2323 21.5135 18.101 20.2604C15.9705 19.0089 13.7244 17.6221 11.5394 16.1378C9.37225 14.6272 7.26295 13.0231 5.40938 11.3624C3.55905 9.70415 1.99297 7.93767 0.984726 6.18924C0.487946 5.31339 0.154861 4.42604 0.0424652 3.60513C-0.0691071 2.78339 0.0506134 2.04941 0.268051 1.50404C0.473282 0.949661 0.771362 0.587189 0.964371 0.348541C1.17448 0.12056 1.28688 0 1.28688 0" fill="#000523" fill-rule="evenodd" transform="translate(165.258 231.543)" />
            <path id="Fill 160" d="M30.4629 0C30.4629 0 30.8713 0.121628 31.6215 0.398956C32.3757 0.67305 33.4684 1.11336 34.8054 1.79613C37.4772 3.1479 41.1725 5.42245 44.9981 8.93689C46.9117 10.686 48.8558 12.7473 50.6375 15.1581C52.4152 17.5656 54.0811 20.3097 55.2582 23.4106C56.4506 26.5042 57.2329 29.8921 57.204 33.4608C57.1646 35.2423 56.8808 37.0782 56.1909 38.8079C55.5091 40.5367 54.4156 42.1269 53.048 43.3837C50.2652 45.9048 46.7082 47.0587 43.3241 47.6458C39.9046 48.2337 36.5164 48.194 33.2899 47.9823C30.0569 47.7585 26.9726 47.2614 24.0822 46.676C21.1901 46.0994 18.4934 45.3964 16.029 44.6812C11.0972 43.254 7.09874 41.7401 4.32405 40.6381C2.93629 40.0883 1.85971 39.6196 1.12483 39.3058C0.391556 38.9879 0 38.8176 0 38.8176C0 38.8176 1.61931 39.3552 4.46315 40.2383C7.3102 41.1116 11.3866 42.3239 16.3346 43.4956C21.2809 44.6382 27.1174 45.784 33.4008 46.1075C36.5357 46.26 39.7872 46.1692 42.9767 45.6161C46.1422 45.0526 49.3197 43.9368 51.6248 41.8074C52.7786 40.7597 53.6815 39.4671 54.2653 38.0237C54.8538 36.5803 55.1175 34.9999 55.1642 33.4113C55.1714 33.0075 55.1754 32.6516 55.1561 32.2258L55.1256 31.5966L55.0701 31.016C55.0146 30.2132 54.8868 29.4209 54.7621 28.6344C54.4791 27.0637 54.0466 25.5392 53.5207 24.0731C52.461 21.1417 50.9897 18.4633 49.3607 16.0865C47.7197 13.7147 45.9396 11.6193 44.1611 9.81752C40.5992 6.20984 37.1347 3.70985 34.6028 2.16591C33.3325 1.39879 32.3009 0.840897 31.5797 0.505188C30.8593 0.160553 30.4629 0 30.4629 0" fill="#010723" fill-rule="evenodd" transform="translate(214.291 238.807)" />
            <path id="Fill 164" d="M201.488 101.375C201.488 101.375 201.506 101.432 201.528 101.574C201.556 101.715 201.57 101.913 201.578 102.179C201.588 102.706 201.479 103.516 201.007 104.441C200.538 105.363 199.678 106.356 198.457 107.199C197.832 107.575 197.164 108.033 196.385 108.333C196 108.494 195.609 108.692 195.191 108.837C194.771 108.975 194.339 109.117 193.896 109.262C193.453 109.423 192.99 109.53 192.513 109.641C192.036 109.752 191.547 109.866 191.047 109.983C190.04 110.146 188.982 110.326 187.878 110.466C186.766 110.558 185.64 110.702 184.407 110.763C183.843 110.79 183.127 110.777 182.518 110.742C181.884 110.716 181.246 110.657 180.599 110.592C175.436 110.034 169.865 108.559 163.879 106.778C157.91 104.938 151.527 102.749 144.867 100.226C138.201 97.7194 131.292 94.7883 124.071 91.9875C120.456 90.5989 116.78 89.1819 112.98 88.0265C111.087 87.4362 109.161 86.901 107.208 86.5277C106.234 86.3407 105.251 86.1852 104.278 86.131C103.316 86.0872 102.315 86.1075 101.625 86.5625L101.298 86.7609L100.877 86.9569C100.601 87.0613 100.339 87.1536 100.068 87.2119C99.5295 87.3479 98.9933 87.407 98.4603 87.4451C97.3934 87.5115 96.3427 87.4532 95.3009 87.356C93.2164 87.1593 91.1675 86.7561 89.1444 86.2629C85.087 85.3099 81.1168 83.9869 77.2289 82.4598C69.4572 79.4072 61.9505 75.5433 55.2432 70.6268C51.8916 68.1734 48.7419 65.4561 45.9242 62.4327C43.1306 59.3955 40.6383 56.0385 38.9472 52.2329C38.7509 51.7754 38.5418 51.3803 38.356 50.8734L37.8076 49.3528C37.5016 48.3237 37.2132 47.3172 37.0969 46.2225C36.8086 44.0889 36.9992 41.6882 38.0281 39.6194C39.0449 37.5539 40.6456 35.996 42.1768 34.8227C42.9465 34.2236 43.7161 33.6964 44.3921 33.1912C45.0649 32.69 45.69 32.1799 45.9928 31.7718C46.0372 31.6787 46.1018 31.5912 46.1551 31.5119C46.1551 31.4439 46.2044 31.3872 46.2165 31.3289C46.1947 31.2673 46.2408 31.2301 46.2262 31.1532C46.1947 31.0714 46.2036 31.0001 46.1818 30.9014C46.1269 30.7888 46.0792 30.6755 46.0388 30.5572C45.9993 30.439 45.8765 30.2949 45.803 30.1629C45.6682 29.8941 45.4008 29.6099 45.1804 29.3289C44.2007 28.2018 42.9408 27.1419 41.6874 26.1347C39.1515 24.1371 36.4476 22.3323 33.877 20.7154C28.7236 17.4506 23.672 14.9713 19.0516 13.1268C16.737 12.2086 14.5314 11.4346 12.4696 10.7407C10.4061 10.0492 8.48399 9.4411 6.76781 8.7488C5.0597 8.0476 3.51958 7.27515 2.42365 6.22659C1.30591 5.20394 0.715546 4.00963 0.436919 3.04366C0.172022 2.06635 0.0791462 1.30847 0.0468416 0.799173C0.0153447 0.290682 0 0.0283394 0 0.0283394L0.35212 0C0.35212 0 0.395731 0.252626 0.478108 0.741684C0.561292 1.22831 0.732506 1.94652 1.07009 2.81694C1.42302 3.67846 2.01984 4.67197 3.06974 5.47195C4.0938 6.29784 5.55235 6.88892 7.23864 7.41442C10.6387 8.42897 14.9998 9.30345 19.8455 10.9382C24.7057 12.5309 30.0295 14.858 35.5132 18.0077C38.251 19.6085 40.9969 21.3089 43.7961 23.3614C45.1884 24.4003 46.5783 25.5063 47.898 26.9662C48.2218 27.3573 48.557 27.7071 48.8502 28.201C48.9971 28.4447 49.1587 28.6431 49.2871 28.9289C49.4155 29.214 49.539 29.5038 49.6545 29.7961C49.7523 30.1176 49.8112 30.4884 49.8686 30.8374C49.9122 31.1953 49.8605 31.6026 49.8266 31.9807C49.7611 32.354 49.6214 32.7078 49.4938 33.0625C49.3371 33.3726 49.1587 33.6592 48.9769 33.9499C48.2121 34.979 47.4013 35.579 46.6526 36.1774C45.8951 36.7636 45.1747 37.2753 44.5133 37.8113C43.1629 38.8559 42.0735 39.9765 41.4249 41.2825C40.7772 42.5821 40.6254 44.1148 40.833 45.7456C40.9137 46.5537 41.1496 47.4022 41.3644 48.2249L41.7674 49.4394C41.8998 49.8475 42.1308 50.3212 42.3077 50.7592C43.7008 54.1057 45.8991 57.2417 48.4472 60.1315C51.0154 63.0205 53.972 65.6626 57.1242 68.1176C63.4688 72.9839 70.5322 77.2364 77.9832 80.6695C81.7192 82.3569 85.553 83.8565 89.4756 84.982C91.4397 85.5204 93.4272 85.969 95.4212 86.2144C96.417 86.3326 97.4176 86.3844 98.3932 86.3358C99.3745 86.2702 100.303 86.1358 101.067 85.6362C101.561 85.3043 102.183 85.1698 102.716 85.101C103.267 85.033 103.801 85.029 104.328 85.0508C105.382 85.0962 106.404 85.2468 107.413 85.4257C109.428 85.7974 111.388 86.2994 113.331 86.8063C117.203 87.871 120.994 89.0062 124.702 90.1835C132.113 92.5511 139.238 94.9251 145.932 97.3024C152.629 99.6708 158.918 101.995 164.785 103.903C170.633 105.839 176.063 107.443 180.903 108.247C182.127 108.436 183.255 108.558 184.388 108.588C185.509 108.609 186.648 108.543 187.713 108.527C188.78 108.465 189.797 108.36 190.773 108.271C191.725 108.096 192.669 108.028 193.515 107.807C195.246 107.467 196.691 106.884 197.89 106.283C199.065 105.637 199.887 104.837 200.393 104.086C200.9 103.331 201.087 102.627 201.135 102.157C201.155 101.923 201.165 101.737 201.155 101.626C201.154 101.514 201.14 101.444 201.14 101.444L201.488 101.375Z" fill="#FF5858" fill-rule="evenodd" transform="translate(0 19.976)" />
            <path id="Fill 166" d="M37.2223 24.5432C37.2223 24.5432 37.2647 24.4933 37.3481 24.3959C37.4467 24.2856 37.6053 24.1045 37.7848 23.9249C38.1519 23.5369 38.7136 23.0168 39.4942 22.3904C40.2812 21.7753 41.3085 21.0878 42.61 20.4292C43.9258 19.8029 45.543 19.2433 47.4279 19.001C49.3111 18.7313 51.458 18.9221 53.6001 19.5646C54.1355 19.728 54.694 19.8713 55.2101 20.1265C55.7134 20.3471 56.2263 20.5717 56.748 20.802C56.998 20.9147 57.2488 21.029 57.5029 21.145C57.7681 21.2722 57.934 21.2963 58.156 21.3833C58.3556 21.4646 58.5896 21.5201 58.8276 21.5749C59.0616 21.6393 59.2988 21.6924 59.54 21.7158C61.4289 22.0128 63.5862 21.5217 64.8548 19.9486C66.1731 18.439 66.3646 15.9876 65.2931 13.7196C64.7803 12.5804 64.0133 11.4815 63.0885 10.4582C62.1461 9.44463 61.0466 8.51314 59.8598 7.63801C58.6457 6.79508 57.3651 5.98114 55.9803 5.2775L55.4674 5.00296C55.4674 5.00296 55.3696 4.95305 55.457 4.99491L55.388 4.96352L55.2502 4.90233L54.9729 4.77834C54.6043 4.6125 54.2348 4.44665 53.863 4.27999C53.1289 3.98614 52.4534 3.77118 51.7185 3.53046C48.7213 2.67787 45.4565 2.41944 42.1548 2.74711C38.8523 3.09974 35.5289 4.04733 32.3378 5.45945C25.9332 8.27966 20.1408 13.0377 15.5104 18.8505C10.8455 24.6608 7.36671 31.5588 5.06353 38.8158C3.89672 42.4435 3.016 46.1711 2.4382 49.9341L2.205 51.3422L2.0335 52.7575C1.92932 53.6938 1.79068 54.6607 1.71455 55.5705C1.58152 57.4793 1.42205 59.3882 1.43647 61.2479C1.36515 63.1157 1.50058 64.9948 1.5703 66.8554C1.741 68.7119 1.87803 70.5652 2.18096 72.3855C2.71388 76.0366 3.50805 79.6104 4.58511 83.0352C5.63732 86.4657 6.89389 89.7778 8.37565 92.904C9.82936 96.0414 11.4442 99.0266 13.2048 101.814C16.6668 107.433 20.6424 112.286 24.5836 116.48C28.5689 120.641 32.5702 124.114 36.3039 126.939C40.0431 129.76 43.5147 131.927 46.4486 133.567C49.3889 135.202 51.8058 136.278 53.4575 136.996C55.1324 137.662 56.0251 138.018 56.0251 138.018C56.0251 138.018 55.1268 137.676 53.4423 137.033C51.7802 136.338 49.3456 135.296 46.3765 133.7C43.4138 132.1 39.9029 129.977 36.1099 127.201C32.325 124.42 28.2572 120.99 24.1886 116.864C20.1656 112.703 16.0922 107.874 12.5172 102.253C10.6997 99.4654 9.02558 96.4721 7.50855 93.3178C5.96429 90.1755 4.64281 86.8376 3.52488 83.3709C2.3821 79.9099 1.52302 76.2894 0.928393 72.5811C0.594216 70.7311 0.425124 68.8472 0.225579 66.9568C0.127009 65.0584 -0.0372744 63.1568 0.00760269 61.2238C-0.0308638 59.2811 0.102166 57.3851 0.207949 55.4755C0.276067 54.478 0.39948 53.5441 0.493241 52.5731L0.647107 51.1288L0.864283 49.6901C1.40041 45.8458 2.24426 42.0241 3.38624 38.2901C5.64133 30.8197 9.11773 23.6568 13.8755 17.5519C18.5997 11.4469 24.5788 6.36356 31.3513 3.25915C34.726 1.70855 38.2801 0.63295 41.8719 0.197395C45.4621 -0.213196 49.0779 0.0114212 52.4502 0.921173C53.2876 1.17477 54.1795 1.46139 54.9585 1.7649C55.3327 1.92592 55.7054 2.08614 56.0764 2.24635L56.3553 2.3663L56.4939 2.42588L56.5637 2.45567L56.6887 2.51685L57.2432 2.80266C58.733 3.53448 60.1434 4.39673 61.4946 5.31051C62.8257 6.26131 64.0863 7.29424 65.209 8.46806C66.3157 9.65797 67.2886 10.9848 67.9866 12.475C68.6806 13.9579 69.1037 15.6237 68.9907 17.3119C68.8978 18.9889 68.2903 20.653 67.2365 21.9154C66.7348 22.5691 66.1033 23.0836 65.4614 23.5449C64.7931 23.9611 64.0975 24.3202 63.373 24.5384C61.9313 25.0037 60.4552 25.073 59.1008 24.8894C58.7562 24.8556 58.4261 24.7888 58.1023 24.7083C57.777 24.6366 57.4548 24.5626 57.1246 24.441C56.8145 24.3323 56.433 24.2188 56.1942 24.1069C55.9386 23.995 55.6861 23.8847 55.4353 23.7744C54.9521 23.5707 54.4785 23.3694 54.0129 23.173C53.5785 22.9596 53.1273 22.8606 52.693 22.735C50.9548 22.2423 49.3023 22.1175 47.8566 22.3518C46.4085 22.5619 45.16 23.0087 44.1238 23.5175C43.1012 24.0578 42.2798 24.6205 41.6515 25.1253C41.0336 25.639 40.5825 26.0648 40.314 26.3603C40.1657 26.5125 40.0952 26.601 40.0351 26.667C39.9654 26.75 39.9301 26.7926 39.9301 26.7926L37.2223 24.5432Z" fill="#FF5858" fill-rule="evenodd" transform="translate(9.988 111.686)" />
        </g>
    </g>
</svg>