<?xml version="1.0" encoding="utf-8"?>
<svg width="375" height="412" viewBox="0 0 375 412" fill="none" xmlns="http://www.w3.org/2000/svg">
    <defs>
        <path id="path_1" d="M0 0L0 253.313L57.4575 293.999L28.1707 278.948L128.542 346.319L113.07 329.782L210 388L131.265 314.025L281 398L252 362L332 412L273 346L375 398L375 269.625L345.307 241.702L375 255.188L375 243.945L293.737 178.958L365.332 226.5L289.763 169.537L333.832 180.375L225.877 102.675L331.125 136.5L242.828 75.855L261.458 78.1875L187.357 35.9625L204.608 51.2243L106.147 2.20425L131.333 29.0618L85.2075 0L0 0Z" />
        <clipPath id="clip_path_2">
            <use p4:href="#path_1" xmlns:p4="http://www.w3.org/1999/xlink" />
        </clipPath>
        <path id="path_3" d="M0 0L71.9387 0L71.9387 123.601L0 123.601L0 0Z" />
        <clipPath id="clip_path_4">
            <use p4:href="#path_3" xmlns:p4="http://www.w3.org/1999/xlink" />
        </clipPath>
        <path id="path_5" d="M0 0L97.5251 0L97.5251 126.078L0 126.078L0 0Z" />
        <clipPath id="clip_path_6">
            <use p4:href="#path_5" xmlns:p4="http://www.w3.org/1999/xlink" />
        </clipPath>
    </defs>
    <g id="illustration" transform="matrix(1 0 0 1 0 -0)">
        <g id="Group 154">
            <path id="Mask" d="M0 0L0 253.313L57.4575 293.999L28.1707 278.948L128.542 346.319L113.07 329.782L210 388L131.265 314.025L281 398L252 362L332 412L273 346L375 398L375 269.625L345.307 241.702L375 255.188L375 243.945L293.737 178.958L365.332 226.5L289.763 169.537L333.832 180.375L225.877 102.675L331.125 136.5L242.828 75.855L261.458 78.1875L187.357 35.9625L204.608 51.2243L106.147 2.20425L131.333 29.0618L85.2075 0L0 0Z" fill="#0B2133" fill-rule="evenodd" />
            <g clip-path="url(#clip_path_2)" />
        </g>
        <g id="Group 98" transform="translate(44 51)">
            <g id="Group 3" transform="translate(200 0)">
                <path id="Fill 1" d="M51.55 66.2324L55.4727 77.1218C55.6393 77.5816 55.3552 78.054 54.8718 78.216L49.461 80.0257C49.0477 80.1637 48.5169 79.9642 48.3511 79.5037L44.4276 68.6151C40.2302 68.4696 36.323 65.9227 34.8465 61.8257C32.9498 56.5595 35.8521 50.7803 41.3361 48.9451C46.8163 47.1122 52.8109 49.9148 54.7084 55.1826C56.1841 59.2788 54.7551 63.6113 51.55 66.2324L51.55 66.2324ZM18.8763 27.3696C16.4892 20.746 20.1333 13.4871 27.0066 11.1885C33.876 8.88985 41.407 12.4109 43.7933 19.0338L46.1539 25.5869L21.2361 33.9212L18.8763 27.3696ZM61.8798 20.326L56.4362 22.1469L54.0756 15.5945C49.7217 3.5089 35.9697 -2.9085 23.4388 1.28302C10.9009 5.47679 4.24862 18.7203 8.60174 30.8059L10.9631 37.3583L5.5017 39.1852C1.25521 40.6049 -1.02681 45.1331 0.449657 49.2301L15.8113 91.869C17.3095 96.0268 22.0152 98.2279 26.2617 96.8075L82.6398 77.9491C86.9556 76.5054 89.2384 71.9666 87.7401 67.8081L72.3793 25.17C70.9028 21.0729 66.1955 18.8823 61.8798 20.326L61.8798 20.326Z" fill="#F0C20C" fill-rule="evenodd" transform="translate(0.56 0.403)" />
            </g>
            <path id="Fill 4" d="M19.3691 37.58C17.437 34.0204 21.9587 30.2094 26.1236 29.5057C30.2862 28.8021 35.0032 29.3402 38.3187 26.8568C42.745 23.5403 42.5195 16.3077 47.4238 13.6598C51.3609 11.5351 56.5738 13.5621 60.7443 11.8832C65.9258 9.79567 67.3844 2.96846 72.4671 0.675034C76.5209 -1.1525 81.819 0.91275 83.888 4.68137C85.957 8.45102 85.0055 13.3223 82.1365 16.59C79.8936 19.1445 76.5725 20.9348 75.179 23.9828C72.9978 28.7565 76.4412 34.5415 74.4339 39.382C70.7246 48.3233 53.2044 45.6319 50.1604 54.795C49.4838 56.8347 49.7688 59.0337 49.5927 61.1658C49.0676 67.5059 44.3416 73.0447 38.5049 76.2042C32.6683 79.3615 25.8397 80.4578 19.1301 80.9014C16.3901 81.0829 13.501 81.1359 11.0572 79.9473C8.75824 78.8276 7.15825 76.7465 5.91057 74.6048C-2.14658 60.7795 -5.46773 42.7654 19.3691 37.58" fill="#FFFFFF" fill-rule="evenodd" transform="translate(181 228)" />
            <g id="Group 8" transform="translate(0 184)">
                <path id="Clip 7" d="M0 0L71.9387 0L71.9387 123.601L0 123.601L0 0Z" transform="translate(0 0.858)" />
                <g clip-path="url(#clip_path_4)">
                    <path id="Fill 6" d="M60.0435 73.5752C64.3667 70.8685 61.9632 64.2206 57.9648 61.0971C53.9653 57.9758 48.587 55.8673 46.6259 51.3247C44.0073 45.2591 48.8457 37.6567 45.2909 32.0334C42.4371 27.5205 35.5827 26.7208 32.1981 22.5515C27.9913 17.3705 30.7745 9.242 26.803 3.89654C23.6379 -0.363911 16.667 -1.17315 12.0627 1.67882C7.4595 4.52973 5.37854 10.2782 6.36414 15.4031C7.13582 19.4121 9.5427 23.2176 9.0947 27.2691C8.39134 33.6126 1.0363 37.8359 0.103338 44.154C-1.61922 55.8228 18.7995 62.9193 16.2246 74.4459C15.6512 77.0126 13.9499 79.2017 12.784 81.5806C9.31422 88.6581 10.8397 97.2691 15.0654 103.968C19.2889 110.667 25.8846 115.726 32.7648 120.019C35.576 121.772 38.6269 123.476 41.9913 123.594C45.1576 123.708 48.1883 122.393 50.8819 120.814C68.2699 110.622 83.2656 93.2558 60.0435 73.5752" fill="#FFDC15" fill-rule="evenodd" transform="translate(-0.001 0.858)" />
                </g>
            </g>
            <path id="Fill 9" d="M1.57964 99.9105C7.60168 97.4455 13.0238 92.887 17.5202 88.483C29.6458 76.6035 37.1622 61.0917 41.1156 45.1226C44.6931 30.6733 45.4916 15.7308 44.7444 0.941849C44.6797 -0.310242 42.6211 -0.317642 42.6846 0.941849C44.3641 34.1681 37.4142 74.9397 6.08168 95.1636C4.33081 96.294 2.49185 97.4233 0.539154 98.2224C-0.674179 98.7198 0.3741 100.404 1.57964 99.9105" fill="#FFDC15" fill-rule="evenodd" transform="translate(183 173)" />
            <path id="Fill 11" d="M0 11.9959C0 11.9959 1.98387 1.63951 17 0C17 0 11.5232 12.2556 0 11.9959" fill="#FFDC15" fill-rule="evenodd" transform="translate(225 200)" />
            <path id="Fill 13" d="M0 8.54465C0 8.54465 4.66956 -1.48442 20 0.188141C20 0.188141 11.3673 11.3616 0 8.54465" fill="#FFDC15" fill-rule="evenodd" transform="translate(220 220)" />
            <path id="Fill 15" d="M0 5.43378C0 5.43378 6.80225 -3.38939 21 1.45045C21 1.45045 10.1573 10.5634 0 5.43378" fill="#FFDC15" fill-rule="evenodd" transform="translate(213 237)" />
            <path id="Fill 17" d="M0 11.9959C0 11.9959 1.98413 1.63986 17 0C17 0 11.5227 12.2559 0 11.9959" fill="#FFDC15" fill-rule="evenodd" transform="translate(227 184)" />
            <path id="Fill 19" d="M4.58803 20C4.58803 20 -4.11678 12.7962 2.45396 0C2.45396 0 11.0618 11.0067 4.58803 20" fill="#FFDC15" fill-rule="evenodd" transform="translate(223 157)" />
            <path id="Fill 21" d="M12.9916 16C12.9916 16 1.65802 14.0483 0 0C0 0 13.3834 5.23515 12.9916 16" fill="#FFDC15" fill-rule="evenodd" transform="translate(214 172)" />
            <path id="Fill 23" d="M12.9915 16C12.9915 16 1.658 14.0485 0 0C0 0 13.3844 5.23587 12.9915 16" fill="#FFDC15" fill-rule="evenodd" transform="translate(213 188)" />
            <path id="Fill 25" d="M11.9204 17C11.9204 17 0.60672 14.2817 0 0C0 0 13.1373 6.1674 11.9204 17" fill="#FFDC15" fill-rule="evenodd" transform="translate(211 203)" />
            <path id="Fill 27" d="M11.9204 17C11.9204 17 0.60672 14.2817 0 0C0 0 13.1373 6.1674 11.9204 17" fill="#FFDC15" fill-rule="evenodd" transform="translate(206 218)" />
            <path id="Fill 29" d="M137.261 298L23.7393 298C10.6286 298 0 287.967 0 275.591L0 22.4108C0 10.0339 10.6286 0 23.7393 0L137.261 0C150.372 0 161 10.0339 161 22.4108L161 275.591C161 287.967 150.372 298 137.261 298" fill="#0848BA" fill-rule="evenodd" transform="translate(49 13)" />
            <path id="Fill 31" d="M129.389 279L16.61 279C7.43694 279 0 271.966 0 263.288L0 15.7112C0 7.03403 7.43694 0 16.61 0L129.389 0C138.563 0 146 7.03403 146 15.7112L146 263.288C146 271.966 138.563 279 129.389 279" fill="#FFFFFF" fill-rule="evenodd" transform="translate(57 21)" />
            <path id="Fill 33" d="M100 2.54301L90.4952 2.54301C87.5796 2.54301 85.2152 4.76248 85.2152 7.50046L85.2152 11.0415C85.2152 13.7795 82.8508 16 79.9351 16L37.5487 16C34.6319 16 32.2686 13.7795 32.2686 11.0415L32.2686 7.50046C32.2686 4.76248 29.9042 2.54301 26.9886 2.54301L0 2.54301L0 0L100 0L100 2.54301Z" fill="#0448D8" fill-rule="evenodd" transform="translate(74 19)" />
            <path id="Fill 35" d="M17.5455 14.9278C20.2736 13.59 22.1531 10.9791 22.1531 7.94665C22.1531 3.55439 18.2779 0 13.5006 0C8.71978 0 4.84457 3.55439 4.84457 7.94665C4.84457 10.9791 6.72523 13.59 9.45222 14.9278C3.98798 16.5157 0 21.2259 0 26.7479L0 33L27 33L27 26.7479C27 21.2259 23.012 16.5157 17.5455 14.9278" fill="#023297" fill-rule="evenodd" transform="translate(118 51)" />
            <path id="Fill 37" d="M108.995 17L2.00626 17C0.898621 17 0 16.3874 0 15.6318L0 1.36926C0 0.613663 0.898621 0 2.00626 0L108.995 0C110.101 0 111 0.613663 111 1.36926L111 15.6318C111 16.3874 110.101 17 108.995 17" fill="#FF5858" fill-rule="evenodd" transform="translate(75 244)" />
            <path id="Stroke 39" d="M107.909 16L3.08968 16C1.3824 16 0 14.6765 0 13.0433L0 2.95673C0 1.32458 1.3824 0 3.08968 0L107.909 0C109.615 0 111 1.32458 111 2.95673L111 13.0433C111 14.6765 109.615 16 107.909 16Z" fill="none" stroke-width="0.7" stroke="#023297" transform="translate(75 101)" />
            <path id="Stroke 41" d="M107.909 16L3.08968 16C1.3824 16 0 14.6776 0 13.0433L0 2.95673C0 1.32458 1.3824 0 3.08968 0L107.909 0C109.615 0 111 1.32458 111 2.95673L111 13.0433C111 14.6776 109.615 16 107.909 16Z" fill="none" stroke-width="0.7" stroke="#023297" transform="translate(75 136)" />
            <path id="Stroke 43" d="M107.909 16L3.08968 16C1.3824 16 0 14.6765 0 13.0433L0 2.95673C0 1.32458 1.3824 0 3.08968 0L107.909 0C109.615 0 111 1.32458 111 2.95673L111 13.0433C111 14.6765 109.615 16 107.909 16Z" fill="none" stroke-width="0.7" stroke="#023297" transform="translate(75 173)" />
            <path id="Stroke 45" d="M107.909 16L3.08968 16C1.3824 16 0 14.6765 0 13.0433L0 2.95673C0 1.32352 1.3824 0 3.08968 0L107.909 0C109.615 0 111 1.32352 111 2.95673L111 13.0433C111 14.6765 109.615 16 107.909 16Z" fill="none" stroke-width="0.7" stroke="#023297" transform="translate(75 211)" />
            <path id="Fill 47" d="M0 4.21654C0 4.21654 6.91211 14.2584 8.47807 9.90636C10.0419 5.55533 11 2.89214 11 2.89214C11 2.89214 9.0368 -0.135513 7.99683 0.796692C6.90993 1.76999 5.5 0 5.5 0L0 4.21654Z" fill="#FFBA99" fill-rule="evenodd" transform="translate(122 209)" />
            <path id="Fill 49" d="M24.619 37L27.5911 20.9773C29.5422 20.3932 31.5501 18.9929 30.8619 16.8282C30.5178 15.7475 29.6069 15.1739 28.5314 14.7964C28.1283 14.6551 26.0511 14.1005 25.9046 14.8439C25.9068 14.8344 27.0357 9.06891 27.0357 9.06891L6.79428 0C6.79428 0 4.94992 11.5014 4.92834 11.6353C4.95674 11.4561 2.96019 11.0406 2.6899 11.067C1.67345 11.1682 0.683121 12.0486 0.283356 12.8742C-0.769424 15.0547 1.26801 17.8109 3.8131 17.8479C3.8131 17.8479 4.15834 23.0081 5.44736 24.8396C6.73636 26.669 12.6874 27.9343 12.6874 27.9343L12.0355 34.9112L24.619 37Z" fill="#FFBA99" fill-rule="evenodd" transform="translate(132 122)" />
            <path id="Fill 51" d="M29.7477 4.53197C20.8308 2.12146 8.30797 0 8.30797 0L0 57L35 55.9601L29.7477 4.53197Z" fill="#FF5858" fill-rule="evenodd" transform="translate(134 156)" />
            <path id="Fill 53" d="M0 26.9637C11.8024 29.8694 25.3445 34.4667 37.4814 35.6469C34.7788 24.095 32.4701 12.6075 28.9382 2.79488C32.3108 1.99228 37.2546 0.801544 40.6272 0C40.6272 0 50.6934 36.5697 47.3017 41.4476C41.5296 49.7489 14.4657 44.1591 14.4657 44.1591L0.867569 41.8821L0 26.9637Z" fill="#FFBA99" fill-rule="evenodd" transform="translate(163 134)" />
            <path id="Fill 55" d="M0 0C10.8557 1.57181 15.5798 2.54372 15.5798 2.54372C15.9348 4.44727 16.2165 7.19344 15.771 10.4483C15.329 13.6725 14.3292 16.2448 13.4806 18C9.28099 16.9973 5.08255 15.9947 0.885269 14.9921L0 0Z" fill="#FF5858" fill-rule="evenodd" transform="translate(163 161)" />
            <path id="Fill 57" d="M8.00076 17.0274C8.00076 17.0274 46.021 -0.634583 47.7677 0.0176239C49.5155 0.667725 51 8.85396 51 8.85396C51 8.85396 35.3314 16.7168 14.0184 26.1255L32.8789 52.7249L26.8423 57C26.8423 57 -0.98584 29.8154 0.0269928 23.9433C0.807899 19.4118 8.00076 17.0274 8.00076 17.0274" fill="#FFBA99" fill-rule="evenodd" transform="translate(95 156)" />
            <path id="Fill 59" d="M0 6.08546C0 6.08546 14.6362 -1.65691 17.762 0.324371C20.4704 2.03928 21 8.89992 21 8.89992C21 8.89992 9.9362 16.0744 7.99406 16.9262C5.44606 18.0444 0 6.08546 0 6.08546" fill="#FF5858" fill-rule="evenodd" transform="translate(125 156)" />
            <path id="Fill 61" d="M22 25.2357C22 25.2357 20.4456 14.9951 20.2596 14.702C20.0736 14.411 20.0736 12.6032 17.2825 13.0392C17.2825 13.0392 17.0965 9.79401 15.4834 9.7356C13.8714 9.67719 12.0723 10.0871 12.0723 10.0871C12.0723 10.0871 10.2577 1.76702 9.0797 0.324356C7.79321 -1.25079 5.99411 2.89883 8.7852 13.0392C8.7852 13.0392 10.3319 19.9365 9.87019 20.1889C8.62135 20.8753 6.90529 20.7512 4.52937 16.9229C2.0062 12.8588 -1.13808 14.2347 0.411926 17.3902C1.96303 20.5467 4.16069 24.6286 5.58669 25.7385C7.01378 26.8494 10.0263 26.6825 10.0263 26.6825L10.4692 28L22 25.2357Z" fill="#FFBA99" fill-rule="evenodd" transform="translate(182 108)" />
            <path id="Fill 63" d="M58 3.32104C55.9556 28.3975 55.8053 49.5846 52.8053 65.1051C51.4363 72.1883 32.4739 64.0447 32.4739 64.0447C32.4739 64.0447 36.9965 43.5554 38.4039 33.2943L31.5623 33.2943C28.6809 40.3573 24.1086 56.7113 22.2686 63.4478C21.8552 64.9588 20.0367 65.6904 18.5818 64.9355L0 55.2968C0 55.2968 17.1767 7.0058 22.944 0C34.6301 1.10701 46.3139 2.21404 58 3.32104" fill="#0448D8" fill-rule="evenodd" transform="translate(111 208)" />
            <path id="Fill 65" d="M27.1765 19.0669C28.8607 15.9168 30.8323 8.27368 25.716 6.1489C23.0599 5.04521 20.3077 3.45763 18.2746 2.18569C15.1556 0.233353 11.2795 -0.5411 7.66391 0.397446C7.08238 0.547943 6.51649 0.74025 5.98529 0.983772C2.41223 2.62361 0 11.4927 0 11.4927L3.51044 12.3142C3.51044 12.3142 7.4257 28.584 13.865 31.9285L20.2977 33.2015L24.1033 34L27.1765 19.0669Z" fill="#CF6940" fill-rule="evenodd" transform="translate(134 118)" />
            <path id="Fill 67" d="M0.704834 3.65806C0.728836 2.54743 0.692825 1.44394 0.597824 0.339264C0.558838 -0.110703 -0.0371704 -0.115463 0.00183105 0.339264C0.0978241 1.44394 0.133835 2.54743 0.109833 3.65806C0.10083 4.11398 0.694824 4.11398 0.704834 3.65806" fill="#CF6940" fill-rule="evenodd" transform="translate(156 120)" />
            <path id="Fill 69" d="M0.403442 2.95224C0.765167 2.70309 0.884521 2.24781 1.08376 1.85357C1.33714 1.35226 1.62727 0.879974 1.94585 0.425697C2.15976 0.121506 1.6851 -0.175674 1.47394 0.125511C1.2233 0.482727 0.98735 0.851952 0.775269 1.24019C0.597153 1.56939 0.428223 2.2298 0.12709 2.43792C-0.168533 2.64305 0.105057 3.15836 0.403442 2.95224" fill="#CF6940" fill-rule="evenodd" transform="translate(157 120)" />
            <path id="Fill 71" d="M0 4.21654C0 4.21654 6.91211 14.2584 8.47807 9.90636C10.0419 5.55533 11 2.89214 11 2.89214C11 2.89214 9.0368 -0.135513 7.99683 0.796692C6.90993 1.76999 5.5 0 5.5 0L0 4.21654Z" fill="#FFBA99" fill-rule="evenodd" transform="translate(122 209)" />
            <path id="Fill 73" d="M24.619 37L27.5911 20.9773C29.5422 20.3932 31.5501 18.9929 30.8619 16.8282C30.5178 15.7475 29.6069 15.1739 28.5314 14.7964C28.1283 14.6551 26.0511 14.1005 25.9046 14.8439C25.9068 14.8344 27.0357 9.06891 27.0357 9.06891L6.79428 0C6.79428 0 4.94992 11.5014 4.92834 11.6353C4.95674 11.4561 2.96019 11.0406 2.6899 11.067C1.67345 11.1682 0.683121 12.0486 0.283356 12.8742C-0.769424 15.0547 1.26801 17.8109 3.8131 17.8479C3.8131 17.8479 4.15834 23.0081 5.44736 24.8396C6.73636 26.669 12.6874 27.9343 12.6874 27.9343L12.0355 34.9112L24.619 37Z" fill="#FFBA99" fill-rule="evenodd" transform="translate(132 122)" />
            <path id="Fill 75" d="M29.7477 4.53197C20.8308 2.12146 8.30797 0 8.30797 0L0 57L35 55.9601L29.7477 4.53197Z" fill="#FF5858" fill-rule="evenodd" transform="translate(134 156)" />
            <path id="Fill 77" d="M0 26.9637C11.8024 29.8694 25.3445 34.4667 37.4814 35.6469C34.7788 24.095 32.4701 12.6075 28.9382 2.79488C32.3108 1.99228 37.2546 0.801544 40.6272 0C40.6272 0 50.6934 36.5697 47.3017 41.4476C41.5296 49.7489 14.4657 44.1591 14.4657 44.1591L0.867569 41.8821L0 26.9637Z" fill="#FFBA99" fill-rule="evenodd" transform="translate(163 134)" />
            <path id="Fill 79" d="M0 0C10.8557 1.57181 15.5798 2.54372 15.5798 2.54372C15.9348 4.44727 16.2165 7.19344 15.771 10.4483C15.329 13.6725 14.3292 16.2448 13.4806 18C9.28099 16.9973 5.08255 15.9947 0.885269 14.9921L0 0Z" fill="#FF5858" fill-rule="evenodd" transform="translate(163 161)" />
            <path id="Fill 81" d="M8.00076 17.0274C8.00076 17.0274 46.021 -0.634583 47.7677 0.0176239C49.5155 0.667725 51 8.85396 51 8.85396C51 8.85396 35.3314 16.7168 14.0184 26.1255L32.8789 52.7249L26.8423 57C26.8423 57 -0.98584 29.8154 0.0269928 23.9433C0.807899 19.4118 8.00076 17.0274 8.00076 17.0274" fill="#FFBA99" fill-rule="evenodd" transform="translate(95 156)" />
            <path id="Fill 83" d="M0 6.08546C0 6.08546 14.6362 -1.65691 17.762 0.324371C20.4704 2.03928 21 8.89992 21 8.89992C21 8.89992 9.9362 16.0744 7.99406 16.9262C5.44606 18.0444 0 6.08546 0 6.08546" fill="#FF5858" fill-rule="evenodd" transform="translate(125 156)" />
            <path id="Fill 85" d="M22 25.2357C22 25.2357 20.4456 14.9951 20.2596 14.702C20.0736 14.411 20.0736 12.6032 17.2825 13.0392C17.2825 13.0392 17.0965 9.79401 15.4834 9.7356C13.8714 9.67719 12.0723 10.0871 12.0723 10.0871C12.0723 10.0871 10.2577 1.76702 9.0797 0.324356C7.79321 -1.25079 5.99411 2.89883 8.7852 13.0392C8.7852 13.0392 10.3319 19.9365 9.87019 20.1889C8.62135 20.8753 6.90529 20.7512 4.52937 16.9229C2.0062 12.8588 -1.13808 14.2347 0.411926 17.3902C1.96303 20.5467 4.16069 24.6286 5.58669 25.7385C7.01378 26.8494 10.0263 26.6825 10.0263 26.6825L10.4692 28L22 25.2357Z" fill="#FFBA99" fill-rule="evenodd" transform="translate(182 108)" />
            <g id="Group 89" transform="translate(71 208)">
                <path id="Clip 88" d="M0 0L97.5251 0L97.5251 126.078L0 126.078L0 0Z" transform="translate(0.757 0.24)" />
                <g clip-path="url(#clip_path_6)">
                    <path id="Fill 87" d="M97.5251 3.32459C93.2602 64.7128 83.2619 120.303 83.2619 120.303L97.4434 125.992L67.2448 125.992L78.0942 33.3298L71.3104 33.3298L30.1638 126.079L0 126.079L17.1606 120.148L62.7637 0L97.5251 3.32459Z" fill="#F4C7A2" fill-rule="evenodd" transform="translate(0.757 0.24)" />
                </g>
            </g>
            <path id="Fill 90" d="M58 3.32104C55.9556 28.3975 55.8053 49.5846 52.8053 65.1051C51.4363 72.1883 32.4739 64.0447 32.4739 64.0447C32.4739 64.0447 36.9965 43.5554 38.4039 33.2943L31.5623 33.2943C28.6809 40.3573 24.1086 56.7113 22.2686 63.4478C21.8552 64.9588 20.0367 65.6904 18.5818 64.9355L0 55.2968C0 55.2968 17.1767 7.0058 22.944 0C34.6301 1.10701 46.3139 2.21404 58 3.32104" fill="#0448D8" fill-rule="evenodd" transform="translate(111 208)" />
            <path id="Fill 92" d="M27.1765 19.0669C28.8607 15.9168 30.8323 8.27368 25.716 6.1489C23.0599 5.04521 20.3077 3.45763 18.2746 2.18569C15.1556 0.233353 11.2795 -0.5411 7.66391 0.397446C7.08238 0.547943 6.51649 0.74025 5.98529 0.983772C2.41223 2.62361 0 11.4927 0 11.4927L3.51044 12.3142C3.51044 12.3142 7.4257 28.584 13.865 31.9285L20.2977 33.2015L24.1033 34L27.1765 19.0669Z" fill="#CF6940" fill-rule="evenodd" transform="translate(134 118)" />
            <path id="Fill 94" d="M0.704834 3.65806C0.728836 2.54743 0.692825 1.44394 0.597824 0.339264C0.558838 -0.110703 -0.0371704 -0.115463 0.00183105 0.339264C0.0978241 1.44394 0.133835 2.54743 0.109833 3.65806C0.10083 4.11398 0.694824 4.11398 0.704834 3.65806" fill="#CF6940" fill-rule="evenodd" transform="translate(156 120)" />
            <path id="Fill 96" d="M0.403442 2.95224C0.765167 2.70309 0.884521 2.24781 1.08376 1.85357C1.33714 1.35226 1.62727 0.879974 1.94585 0.425697C2.15976 0.121506 1.6851 -0.175674 1.47394 0.125511C1.2233 0.482727 0.98735 0.851952 0.775269 1.24019C0.597153 1.56939 0.428223 2.2298 0.12709 2.43792C-0.168533 2.64305 0.105057 3.15836 0.403442 2.95224" fill="#CF6940" fill-rule="evenodd" transform="translate(157 120)" />
        </g>
    </g>
</svg>