<svg width="47" height="23" viewBox="0 0 47 23" fill="none" xmlns="http://www.w3.org/2000/svg">
    <rect width="47" height="23" rx="11.5" fill="#D9D9D9"/>
    <path d="M13.5 17.75C12.6792 17.75 11.8665 17.5883 11.1082 17.2742C10.3499 16.9602 9.66095 16.4998 9.08058 15.9194C7.90848 14.7473 7.25 13.1576 7.25 11.5C7.25 9.8424 7.90848 8.25269 9.08058 7.08058C10.2527 5.90848 11.8424 5.25 13.5 5.25C14.3208 5.25 15.1335 5.41166 15.8918 5.72575C16.6501 6.03984 17.3391 6.50022 17.9194 7.08058C18.4998 7.66095 18.9602 8.34994 19.2742 9.10823C19.5883 9.86651 19.75 10.6792 19.75 11.5C19.75 13.1576 19.0915 14.7473 17.9194 15.9194C16.7473 17.0915 15.1576 17.75 13.5 17.75ZM13.5 8.375L10.375 11.5H12.25V14H14.75V11.5H16.625L13.5 8.375Z" fill="black"/>
    <path d="M28.0508 8.3125V14H26.8828V8.3125H28.0508ZM29.8008 8.3125V9.23047H25.1602V8.3125H29.8008ZM35.0312 11.0234V11.293C35.0312 11.7253 34.9727 12.1133 34.8555 12.457C34.7383 12.8008 34.5729 13.0938 34.3594 13.3359C34.1458 13.5755 33.8906 13.7591 33.5938 13.8867C33.2995 14.0143 32.9727 14.0781 32.6133 14.0781C32.2565 14.0781 31.9297 14.0143 31.6328 13.8867C31.3385 13.7591 31.0833 13.5755 30.8672 13.3359C30.651 13.0938 30.4831 12.8008 30.3633 12.457C30.2461 12.1133 30.1875 11.7253 30.1875 11.293V11.0234C30.1875 10.5885 30.2461 10.2005 30.3633 9.85938C30.4805 9.51562 30.6458 9.22266 30.8594 8.98047C31.0755 8.73828 31.3307 8.55339 31.625 8.42578C31.9219 8.29818 32.2487 8.23438 32.6055 8.23438C32.9648 8.23438 33.2917 8.29818 33.5859 8.42578C33.8828 8.55339 34.138 8.73828 34.3516 8.98047C34.5677 9.22266 34.7344 9.51562 34.8516 9.85938C34.9714 10.2005 35.0312 10.5885 35.0312 11.0234ZM33.8477 11.293V11.0156C33.8477 10.7135 33.8203 10.4479 33.7656 10.2188C33.7109 9.98958 33.6302 9.79688 33.5234 9.64062C33.4167 9.48438 33.2865 9.36719 33.1328 9.28906C32.9792 9.20833 32.8034 9.16797 32.6055 9.16797C32.4076 9.16797 32.2318 9.20833 32.0781 9.28906C31.9271 9.36719 31.7982 9.48438 31.6914 9.64062C31.5872 9.79688 31.5078 9.98958 31.4531 10.2188C31.3984 10.4479 31.3711 10.7135 31.3711 11.0156V11.293C31.3711 11.5924 31.3984 11.8581 31.4531 12.0898C31.5078 12.319 31.5885 12.513 31.6953 12.6719C31.8021 12.8281 31.9323 12.9466 32.0859 13.0273C32.2396 13.1081 32.4154 13.1484 32.6133 13.1484C32.8112 13.1484 32.987 13.1081 33.1406 13.0273C33.2943 12.9466 33.4232 12.8281 33.5273 12.6719C33.6315 12.513 33.7109 12.319 33.7656 12.0898C33.8203 11.8581 33.8477 11.5924 33.8477 11.293ZM38.0898 11.9727H36.6406V11.0586H38.0898C38.3138 11.0586 38.4961 11.0221 38.6367 10.9492C38.7773 10.8737 38.8802 10.7695 38.9453 10.6367C39.0104 10.5039 39.043 10.3542 39.043 10.1875C39.043 10.0182 39.0104 9.86068 38.9453 9.71484C38.8802 9.56901 38.7773 9.45182 38.6367 9.36328C38.4961 9.27474 38.3138 9.23047 38.0898 9.23047H37.0469V14H35.875V8.3125H38.0898C38.5352 8.3125 38.9167 8.39323 39.2344 8.55469C39.5547 8.71354 39.7995 8.93359 39.9688 9.21484C40.138 9.49609 40.2227 9.81771 40.2227 10.1797C40.2227 10.5469 40.138 10.8646 39.9688 11.1328C39.7995 11.401 39.5547 11.6081 39.2344 11.7539C38.9167 11.8997 38.5352 11.9727 38.0898 11.9727Z" fill="black"/>
</svg>
