<svg width="27" height="27" viewBox="0 0 27 27" fill="none" xmlns="http://www.w3.org/2000/svg">
    <path d="M25.2391 27H27V20.6214C26.5061 21.5577 25.9178 22.437 25.2391 23.252V27Z" fill="#B9B9B9"/>
    <path d="M13.5 0C6.04418 0 0 6.04418 0 13.5C0 20.9558 6.04418 27 13.5 27C20.9558 27 27 20.9558 27 13.5C27 6.04418 20.9558 0 13.5 0ZM13.5 2.34783C15.2829 2.34783 16.7283 3.79315 16.7283 5.57609C16.7283 7.35903 15.2829 8.80435 13.5 8.80435C11.7171 8.80435 10.2717 7.35903 10.2717 5.57609C10.2717 3.79315 11.7171 2.34783 13.5 2.34783ZM2.73563 11.0514C2.73563 9.26845 4.18095 7.82313 5.96389 7.82313C7.74677 7.82313 9.19215 9.26845 9.19215 11.0514C9.19215 12.8343 7.74677 14.2797 5.96389 14.2797C4.18101 14.2797 2.73563 12.8343 2.73563 11.0514ZM8.84244 23.1388C7.05956 23.1388 5.61418 21.6935 5.61418 19.9106C5.61418 18.1276 7.05956 16.6823 8.84244 16.6823C10.6254 16.6823 12.0707 18.1276 12.0707 19.9106C12.0707 21.6935 10.6254 23.1388 8.84244 23.1388ZM13.5 14.6739C12.8516 14.6739 12.3261 14.1484 12.3261 13.5C12.3261 12.8516 12.8516 12.3261 13.5 12.3261C14.1484 12.3261 14.6739 12.8516 14.6739 13.5C14.6739 14.1484 14.1484 14.6739 13.5 14.6739ZM18.1576 23.1388C16.3746 23.1388 14.9293 21.6935 14.9293 19.9106C14.9293 18.1276 16.3746 16.6823 18.1576 16.6823C19.9404 16.6823 21.3858 18.1276 21.3858 19.9106C21.3858 21.6935 19.9405 23.1388 18.1576 23.1388ZM21.0361 14.2797C19.2532 14.2797 17.8078 12.8343 17.8078 11.0514C17.8078 9.26845 19.2532 7.82313 21.0361 7.82313C22.819 7.82313 24.2644 9.26845 24.2644 11.0514C24.2644 12.8343 22.819 14.2797 21.0361 14.2797Z" fill="#B9B9B9"/>
</svg>
