<?xml version="1.0" encoding="utf-8"?>
<svg width="13.413" height="14" viewBox="0 0 13.413 14" fill="none" xmlns="http://www.w3.org/2000/svg">
    <path id="Oval 4" d="M7.70661 1C7.70661 1.55228 7.25889 2 6.70661 2C6.15433 2 5.70661 1.55228 5.70661 1C5.70661 0.447716 6.15433 0 6.70661 0C7.25889 0 7.70661 0.447716 7.70661 1ZM10.8211 1.33687C11.2679 1.6615 11.367 2.28687 11.0423 2.73367C10.7177 3.18048 10.0923 3.27953 9.64554 2.9549C9.19873 2.63028 9.09968 2.00491 9.42431 1.5581C9.74893 1.11129 10.3743 1.01225 10.8211 1.33687ZM2.59211 1.3369C3.03892 1.01227 3.66429 1.11132 3.98891 1.55813C4.31354 2.00494 4.21449 2.63031 3.76768 2.95493C3.32087 3.27956 2.69551 3.18051 2.37088 2.7337C2.04626 2.28689 2.1453 1.66152 2.59211 1.3369ZM13.364 4.83686C13.5347 5.36211 13.2472 5.92627 12.722 6.09693C12.1967 6.2676 11.6326 5.98015 11.4619 5.4549C11.2912 4.92964 11.5787 4.36549 12.1039 4.19482C12.6292 4.02415 13.1933 4.31161 13.364 4.83686ZM0.0492135 4.83691C0.219879 4.31165 0.784033 4.0242 1.30929 4.19487C1.83454 4.36553 2.12199 4.92969 1.95133 5.45494C1.78066 5.98019 1.21651 6.26765 0.691253 6.09698C0.165999 5.92632 -0.121452 5.36216 0.0492135 4.83691ZM13.364 9.16309C13.1933 9.68835 12.6292 9.9758 12.1039 9.80513C11.5787 9.63447 11.2912 9.07031 11.4619 8.54506C11.6326 8.01981 12.1967 7.73235 12.722 7.90302C13.2472 8.07368 13.5347 8.63784 13.364 9.16309ZM0.0492141 9.16314C-0.121451 8.63789 0.166 8.07373 0.691254 7.90307C1.21651 7.7324 1.78066 8.01985 1.95133 8.5451C2.12199 9.07036 1.83454 9.63451 1.30929 9.80518C0.784033 9.97585 0.219879 9.68839 0.0492141 9.16314ZM10.8211 12.6631C10.3743 12.9877 9.74893 12.8887 9.4243 12.4419C9.09968 11.9951 9.19873 11.3697 9.64553 11.0451C10.0923 10.7204 10.7177 10.8195 11.0423 11.2663C11.367 11.7131 11.2679 12.3385 10.8211 12.6631ZM2.37088 11.2663C2.69551 10.8195 3.32087 10.7205 3.76768 11.0451C4.21449 11.3697 4.31354 11.9951 3.98891 12.4419C3.66429 12.8887 3.03892 12.9878 2.59211 12.6631C2.1453 12.3385 2.04626 11.7131 2.37088 11.2663ZM5.70661 13C5.70661 12.4477 6.15433 12 6.70661 12C7.25889 12 7.70661 12.4477 7.70661 13C7.70661 13.5523 7.25889 14 6.70661 14C6.15433 14 5.70661 13.5523 5.70661 13Z" fill="#747A98" fill-rule="evenodd" />
</svg>