<?xml version="1.0" encoding="utf-8"?>
<svg width="375.5" height="324" viewBox="0 0 375.5 324" fill="none" xmlns="http://www.w3.org/2000/svg">
    <defs>
        <linearGradient id="gradient_1" gradientUnits="userSpaceOnUse" x1="132.717" y1="0" x2="132.717" y2="265.099">
            <stop offset="0" stop-color="#8AD5E2" />
            <stop offset="1" stop-color="#51599A" stop-opacity="0.267" />
        </linearGradient>
        <path id="path_2" d="M0 0L303.987 0L303.987 224L0 224L0 0Z" />
        <clipPath id="clip_path_3">
            <use p4:href="#path_2" xmlns:p4="http://www.w3.org/1999/xlink" />
        </clipPath>
        <filter color-interpolation-filters="sRGB" x="-263.434" y="-175.722" width="265.434" height="177.722" id="filter_4">
            <feFlood flood-opacity="0" result="BackgroundImageFix_1" />
            <feColorMatrix type="matrix" values="0 0 0 0 0 0 0 0 0 0 0 0 0 0 0 0 0 0 1 0" in="SourceAlpha" />
            <feOffset dx="0" dy="2" />
            <feGaussianBlur stdDeviation="4" />
            <feColorMatrix type="matrix" values="0 0 0 0 0.224 0 0 0 0 0.251 0 0 0 0 0.373 0 0 0 1 0" />
            <feBlend mode="normal" in2="BackgroundImageFix_1" result="Shadow_2" />
            <feBlend mode="normal" in="SourceGraphic" in2="Shadow_2" result="Shape_3" />
        </filter>
        <linearGradient id="gradient_5" gradientUnits="userSpaceOnUse" x1="60.65" y1="0" x2="30.325" y2="17.509">
            <stop offset="0" stop-color="#FFFFFF" />
            <stop offset="1" stop-color="#89D5E2" stop-opacity="0" />
        </linearGradient>
        <filter color-interpolation-filters="sRGB" x="-58.65" y="-65.712" width="60.65" height="67.712" id="filter_6">
            <feFlood flood-opacity="0" result="BackgroundImageFix_1" />
            <feBlend mode="normal" in="SourceGraphic" in2="BackgroundImageFix_1" result="Shape_2" />
            <feGaussianBlur stdDeviation="1" />
        </filter>
        <filter color-interpolation-filters="sRGB" x="-58.65" y="-65.712" width="60.65" height="67.712" id="filter_7">
            <feFlood flood-opacity="0" result="BackgroundImageFix_1" />
            <feBlend mode="normal" in="SourceGraphic" in2="BackgroundImageFix_1" result="Shape_2" />
            <feGaussianBlur stdDeviation="1" />
        </filter>
        <filter color-interpolation-filters="sRGB" x="-58.65" y="-65.712" width="60.65" height="67.712" id="filter_8">
            <feFlood flood-opacity="0" result="BackgroundImageFix_1" />
            <feBlend mode="normal" in="SourceGraphic" in2="BackgroundImageFix_1" result="Shape_2" />
            <feGaussianBlur stdDeviation="1" />
        </filter>
        <linearGradient id="gradient_9" gradientUnits="userSpaceOnUse" x1="60.65" y1="0" x2="19.374" y2="33.856">
            <stop offset="0" stop-color="#FFFFFF" />
            <stop offset="1" stop-color="#89D5E2" />
        </linearGradient>
    </defs>
    <g id="Chart" transform="translate(0.25 0)">
        <path id="Last month chart" d="M3.89649 0.011289C55.5582 4.09324 34.5271 90.1282 62.8105 90.1017C91.7813 90.0746 100.417 90.1017 121.811 90.1017C161.558 90.1017 145.255 181.624 170.885 181.624C174.538 181.624 203.498 181.624 216.865 181.624C251.828 181.624 227.865 260.184 268.728 260.184C272.788 260.184 273.63 260.063 282.105 260.184C332.219 260.9 284.887 59.0108 344.41 59.0108C352.688 59.0108 360.596 45.3549 375 59.0108C375 76.9258 376.488 322.433 375 322.861C253.89 322.433 123.884 322.829 0 322.861C0.208079 322.829 0.00476865 117.01 8.19641e-05 3.76169C-7.18274e-06 1.60757 1.74906 -0.158387 3.89649 0.011289Z" fill="#9BABFF" fill-rule="evenodd" fill-opacity="0.1" />
        <g id="This month chart" transform="translate(0 24)">
            <path id="Path 5" d="M0 0C48.2715 0 25.2402 110.243 58.502 110.243C75.9556 110.243 73.0098 110.243 82.8203 110.243C121.322 110.243 111.225 177.274 146.902 177.678C159.117 177.777 153.617 177.678 167 177.678C219.441 177.678 175.344 14.0788 265.434 13.4698L265.434 265.099L0.138572 265.099L0 0Z" fill="url(#gradient_1)" fill-rule="evenodd" fill-opacity="0.3" transform="translate(0 34.054)" />
            <path id="Mask" d="M0 0L303.987 0L303.987 224L0 224L0 0Z" />
            <g clip-path="url(#clip_path_3)">
                <path id="Path 5" d="M0 0C48.2715 0 25.2402 110.243 58.502 110.243C75.9556 110.243 73.0098 110.243 82.8203 110.243C121.322 110.243 111.225 177.274 146.902 177.678C159.117 177.777 153.617 177.678 167 177.678C219.441 177.678 175.344 14.0788 265.434 13.4698" fill="none" stroke-width="2" stroke="#7FCFDC" stroke-linecap="round" filter="url(#filter_4)" transform="translate(0 34.054)" />
                <g id="Group 2" transform="translate(204 47)">
                    <path id="Path 5" d="M0 67.7122C7.3332 32.1289 20.9867 0.268094 60.65 0" fill="none" stroke-width="2" stroke="url(#gradient_5)" stroke-linecap="round" filter="url(#filter_6)" transform="translate(0.784 0.524)" />
                    <path id="Path 5" d="M0 67.7122C7.3332 32.1289 20.9867 0.268094 60.65 0" fill="none" stroke-width="2" stroke="url(#gradient_5)" stroke-linecap="round" filter="url(#filter_7)" transform="translate(0.784 0.524)" />
                    <path id="Path 5" d="M0 67.7122C7.3332 32.1289 20.9867 0.268094 60.65 0" fill="none" stroke-width="2" stroke="url(#gradient_5)" stroke-linecap="round" filter="url(#filter_8)" transform="translate(0.784 0.524)" />
                </g>
                <path id="Path 5" d="M0 67.7122C7.33321 32.1289 20.9867 0.268093 60.65 0" fill="none" stroke-width="2" stroke="url(#gradient_9)" stroke-linecap="round" transform="translate(204.784 47.524)" />
            </g>
        </g>
        <g id="Days" transform="translate(9 302)">
            <path d="M3.64063 2.65625L3.64063 10.6563L2.67188 10.6563L2.67188 3.67188L2.625 3.67188L0.671875 4.96875L0.671875 3.98437L2.67188 2.65625L3.64063 2.65625Z" fill="#C2C8E6" />
            <path d="M3.64063 2.65625L3.64063 10.6563L2.67188 10.6563L2.67188 3.67188L2.625 3.67188L0.671875 4.96875L0.671875 3.98437L2.67188 2.65625L3.64063 2.65625ZM8.4375 10.7656Q7.75 10.7656 7.19922 10.4922Q6.64844 10.2188 6.31641 9.74219Q5.98438 9.26563 5.95313 8.65625L6.89063 8.65625Q6.94531 9.19922 7.38477 9.55273Q7.82422 9.90625 8.4375 9.90625Q8.92969 9.90625 9.31445 9.67578Q9.69922 9.44531 9.91992 9.04102Q10.1406 8.63672 10.1406 8.125Q10.1406 7.60156 9.91211 7.18945Q9.68359 6.77734 9.28516 6.53906Q8.88672 6.30078 8.375 6.29687Q8.00781 6.29297 7.62109 6.4082Q7.23438 6.52344 6.98438 6.70313L6.07813 6.59375L6.5625 2.65625L10.7188 2.65625L10.7188 3.51563L7.375 3.51563L7.09375 5.875L7.14063 5.875Q7.38672 5.67969 7.75781 5.55078Q8.12891 5.42188 8.53125 5.42188Q9.26563 5.42188 9.8418 5.77148Q10.418 6.12109 10.748 6.72656Q11.0781 7.33203 11.0781 8.10938Q11.0781 8.875 10.7363 9.47461Q10.3945 10.0742 9.79688 10.4199Q9.19922 10.7656 8.4375 10.7656Z" fill="#C2C8E6" transform="translate(171 0)" />
            <path d="M3.64063 2.65625L3.64063 10.6563L2.67188 10.6563L2.67188 3.67188L2.625 3.67188L0.671875 4.96875L0.671875 3.98437L2.67188 2.65625L3.64063 2.65625ZM8.54688 10.7656Q7.22266 10.7656 6.49414 9.69141Q5.76563 8.61719 5.76563 6.65625Q5.76563 4.71094 6.5 3.62891Q7.23438 2.54688 8.54688 2.54688Q9.85938 2.54688 10.5938 3.62891Q11.3281 4.71094 11.3281 6.65625Q11.3281 8.61719 10.5996 9.69141Q9.87109 10.7656 8.54688 10.7656ZM8.54688 9.90625Q9.42188 9.90625 9.90625 9.0625Q10.3906 8.21875 10.3906 6.65625Q10.3906 5.09766 9.90234 4.24414Q9.41406 3.39063 8.54688 3.39063Q7.67969 3.39063 7.19141 4.24414Q6.70313 5.09766 6.70313 6.65625Q6.70313 8.21875 7.18945 9.0625Q7.67578 9.90625 8.54688 9.90625Z" fill="#C2C8E6" transform="translate(85 0)" />
            <path d="M0.828125 10.6563L0.828125 9.95313L3.46875 7.0625Q3.93359 6.55469 4.23438 6.17773Q4.53516 5.80078 4.68164 5.4668Q4.82813 5.13281 4.82813 4.76563Q4.82813 4.13281 4.38867 3.76172Q3.94922 3.39063 3.29688 3.39063Q2.60156 3.39063 2.19141 3.80664Q1.78125 4.22266 1.78125 4.90625L0.859375 4.90625Q0.859375 4.20313 1.18359 3.67188Q1.50781 3.14062 2.06836 2.84375Q2.62891 2.54688 3.32813 2.54688Q4.03125 2.54688 4.57422 2.84375Q5.11719 3.14063 5.42578 3.64453Q5.73438 4.14844 5.73438 4.76563Q5.73437 5.20703 5.57617 5.62695Q5.41797 6.04688 5.0293 6.56055Q4.64062 7.07422 3.95313 7.8125L2.15625 9.73438L2.15625 9.79688L5.875 9.79688L5.875 10.6563L0.828125 10.6563ZM10.0938 10.7656Q8.76953 10.7656 8.04102 9.69141Q7.3125 8.61719 7.3125 6.65625Q7.3125 4.71094 8.04688 3.62891Q8.78125 2.54688 10.0938 2.54688Q11.4063 2.54688 12.1406 3.62891Q12.875 4.71094 12.875 6.65625Q12.875 8.61719 12.1465 9.69141Q11.418 10.7656 10.0938 10.7656ZM10.0938 9.90625Q10.9688 9.90625 11.4531 9.0625Q11.9375 8.21875 11.9375 6.65625Q11.9375 5.09766 11.4492 4.24414Q10.9609 3.39063 10.0938 3.39063Q9.22656 3.39063 8.73828 4.24414Q8.25 5.09766 8.25 6.65625Q8.25 8.21875 8.73633 9.0625Q9.22266 9.90625 10.0938 9.90625Z" fill="#C2C8E6" transform="translate(256 0)" />
            <path d="M3.53125 10.7656Q2.75781 10.7656 2.1543 10.5Q1.55078 10.2344 1.19727 9.75977Q0.84375 9.28516 0.8125 8.65625L1.79688 8.65625Q1.83984 9.23438 2.33008 9.57031Q2.82031 9.90625 3.51563 9.90625Q4.28516 9.90625 4.7832 9.51367Q5.28125 9.12109 5.28125 8.48438Q5.28125 7.82031 4.79102 7.40234Q4.30078 6.98438 3.39063 6.98438L2.75 6.98438L2.75 6.125L3.39063 6.125Q4.10156 6.125 4.55078 5.74609Q5 5.36719 5 4.73437Q5 4.12891 4.60547 3.75977Q4.21094 3.39063 3.54688 3.39063Q3.13281 3.39063 2.76758 3.54102Q2.40234 3.69141 2.17188 3.97461Q1.94141 4.25781 1.92188 4.65625L0.984375 4.65625Q1.00781 4.02734 1.36328 3.55273Q1.71875 3.07812 2.29492 2.8125Q2.87109 2.54688 3.5625 2.54688Q4.30469 2.54688 4.83594 2.8457Q5.36719 3.14453 5.65234 3.63281Q5.9375 4.12109 5.9375 4.6875Q5.9375 5.36328 5.58398 5.83984Q5.23047 6.31641 4.625 6.5L4.625 6.5625Q5.38281 6.6875 5.80859 7.20508Q6.23437 7.72266 6.23438 8.48438Q6.23438 9.13672 5.88086 9.6543Q5.52734 10.1719 4.91797 10.4688Q4.30859 10.7656 3.53125 10.7656ZM10.6406 2.65625L10.6406 10.6563L9.67188 10.6563L9.67188 3.67188L9.625 3.67188L7.67188 4.96875L7.67188 3.98437L9.67188 2.65625L10.6406 2.65625Z" fill="#C2C8E6" transform="translate(345 0)" />
        </g>
        <g id="Marks" transform="translate(0 29)">
            <path d="M6.4375 5.15625Q6.18359 4.36719 5.60352 3.91016Q5.02344 3.45313 4.15625 3.45313Q3.44531 3.45313 2.86328 3.82031Q2.28125 4.1875 1.9375 4.90234Q1.59375 5.61719 1.59375 6.65625Q1.59375 7.69531 1.94141 8.41016Q2.28906 9.125 2.88281 9.49219Q3.47656 9.85938 4.21875 9.85938Q4.89453 9.85938 5.41602 9.57227Q5.9375 9.28516 6.23438 8.75977Q6.53125 8.23438 6.54688 7.51563L4.4375 7.51563L4.4375 6.65625L7.48438 6.65625L7.48438 7.51563Q7.48438 8.50391 7.06445 9.23438Q6.64453 9.96484 5.9082 10.3652Q5.17188 10.7656 4.21875 10.7656Q3.15625 10.7656 2.35352 10.2656Q1.55078 9.76563 1.10352 8.84375Q0.65625 7.92188 0.65625 6.65625Q0.65625 5.39063 1.10352 4.46875Q1.55078 3.54688 2.3418 3.04688Q3.13281 2.54688 4.15625 2.54688Q5 2.54688 5.6875 2.87695Q6.375 3.20703 6.83203 3.79492Q7.28906 4.38281 7.4375 5.15625L6.4375 5.15625ZM15.8906 6.65625Q15.8906 7.92188 15.4336 8.84375Q14.9766 9.76563 14.1797 10.2656Q13.3828 10.7656 12.3594 10.7656Q11.3359 10.7656 10.5391 10.2656Q9.74219 9.76563 9.28516 8.84375Q8.82813 7.92188 8.82813 6.65625Q8.82813 5.39063 9.28516 4.46875Q9.74219 3.54688 10.5391 3.04688Q11.3359 2.54688 12.3594 2.54688Q13.3828 2.54688 14.1797 3.04688Q14.9766 3.54688 15.4336 4.46875Q15.8906 5.39063 15.8906 6.65625ZM14.9531 6.65625Q14.9531 5.61719 14.6074 4.90234Q14.2617 4.1875 13.6738 3.82031Q13.0859 3.45313 12.3594 3.45313Q11.6328 3.45313 11.0449 3.82031Q10.457 4.1875 10.1113 4.90234Q9.76563 5.61719 9.76563 6.65625Q9.76563 7.69531 10.1113 8.41016Q10.457 9.125 11.0449 9.49219Q11.6328 9.85938 12.3594 9.85938Q13.0859 9.85938 13.6738 9.49219Q14.2617 9.125 14.6074 8.41016Q14.9531 7.69531 14.9531 6.65625ZM17.4688 10.6563L16.4531 10.6563L19.3906 2.65625L20.3906 2.65625L23.3281 10.6563L22.3125 10.6563L21.5078 8.39063L18.2734 8.39063L17.4688 10.6563ZM18.5781 7.53125L21.2031 7.53125L19.9219 3.92187L19.8594 3.92187L18.5781 7.53125ZM24.5781 10.6563L24.5781 2.65625L25.5469 2.65625L25.5469 9.79688L29.2656 9.79688L29.2656 10.6563L24.5781 10.6563ZM31.3125 9.63281Q31.0234 9.63281 30.8164 9.42578Q30.6094 9.21875 30.6094 8.92969Q30.6094 8.64063 30.8164 8.43359Q31.0234 8.22656 31.3125 8.22656Q31.6016 8.22656 31.8086 8.43359Q32.0156 8.64063 32.0156 8.92969Q32.0156 9.21875 31.8086 9.42578Q31.6016 9.63281 31.3125 9.63281ZM31.3125 5.58594Q31.0234 5.58594 30.8164 5.37891Q30.6094 5.17188 30.6094 4.88281Q30.6094 4.59375 30.8164 4.38672Q31.0234 4.17969 31.3125 4.17969Q31.6016 4.17969 31.8086 4.38672Q32.0156 4.59375 32.0156 4.88281Q32.0156 5.17188 31.8086 5.37891Q31.6016 5.58594 31.3125 5.58594ZM39.1094 11.6563L39.1094 10.7852Q37.957 10.7109 37.2852 10.1133Q36.6133 9.51563 36.5469 8.59375L37.5469 8.59375Q37.5977 9.19922 38.0469 9.52148Q38.4961 9.84375 39.1094 9.90625L39.1094 6.94922L38.7969 6.85938Q37.8594 6.58984 37.3125 6.08984Q36.7656 5.58984 36.7656 4.78125Q36.7656 4.16797 37.0723 3.69336Q37.3789 3.21875 37.9082 2.92773Q38.4375 2.63672 39.1094 2.56641L39.1094 1.65625L39.75 1.65625L39.75 2.55469Q40.457 2.60156 41.0039 2.88477Q41.5508 3.16797 41.8672 3.62695Q42.1836 4.08594 42.2031 4.65625L41.2656 4.65625Q41.2031 4.125 40.7871 3.80273Q40.3711 3.48047 39.75 3.41797L39.75 6.19531L40.0625 6.28125Q40.375 6.36328 40.7598 6.50781Q41.1445 6.65234 41.498 6.90039Q41.8516 7.14844 42.082 7.53516Q42.3125 7.92188 42.3125 8.48438Q42.3125 9.09375 42.0137 9.59375Q41.7148 10.0938 41.1426 10.4121Q40.5703 10.7305 39.75 10.7852L39.75 11.6563L39.1094 11.6563ZM39.75 9.90625Q40.457 9.82813 40.916 9.44336Q41.375 9.05859 41.375 8.46875Q41.375 8.07031 41.1523 7.82031Q40.9297 7.57031 40.5664 7.41406Q40.2031 7.25781 39.7813 7.14063L39.75 7.13281L39.75 9.90625ZM39.1094 6.02344L39.1094 3.42969Q38.4648 3.51172 38.084 3.86914Q37.7031 4.22656 37.7031 4.73437Q37.7031 5.13281 37.9316 5.38672Q38.1602 5.64062 38.4863 5.79102Q38.8125 5.94141 39.1094 6.02344ZM43.5781 9.01563L43.5781 8.21875L47.0938 2.65625L48.2656 2.65625L48.2656 8.15625L49.3594 8.15625L49.3594 9.01563L48.2656 9.01563L48.2656 10.6563L47.3438 10.6563L47.3438 9.01563L43.5781 9.01563ZM47.3438 8.15625L47.3438 3.89063L47.2813 3.89063L44.625 8.09375L44.625 8.15625L47.3438 8.15625ZM56.5313 10.7656Q55.207 10.7656 54.4785 9.69141Q53.75 8.61719 53.75 6.65625Q53.75 4.71094 54.4844 3.62891Q55.2188 2.54688 56.5313 2.54688Q57.8438 2.54688 58.5781 3.62891Q59.3125 4.71094 59.3125 6.65625Q59.3125 8.61719 58.584 9.69141Q57.8555 10.7656 56.5313 10.7656ZM56.5313 9.90625Q57.4063 9.90625 57.8906 9.0625Q58.375 8.21875 58.375 6.65625Q58.375 5.09766 57.8867 4.24414Q57.3984 3.39063 56.5313 3.39063Q55.6641 3.39063 55.1758 4.24414Q54.6875 5.09766 54.6875 6.65625Q54.6875 8.21875 55.1738 9.0625Q55.6602 9.90625 56.5313 9.90625ZM63.4063 10.7656Q62.082 10.7656 61.3535 9.69141Q60.625 8.61719 60.625 6.65625Q60.625 4.71094 61.3594 3.62891Q62.0938 2.54688 63.4063 2.54688Q64.7188 2.54688 65.4531 3.62891Q66.1875 4.71094 66.1875 6.65625Q66.1875 8.61719 65.459 9.69141Q64.7305 10.7656 63.4063 10.7656ZM63.4063 9.90625Q64.2813 9.90625 64.7656 9.0625Q65.25 8.21875 65.25 6.65625Q65.25 5.09766 64.7617 4.24414Q64.2734 3.39063 63.4063 3.39063Q62.5391 3.39063 62.0508 4.24414Q61.5625 5.09766 61.5625 6.65625Q61.5625 8.21875 62.0488 9.0625Q62.5352 9.90625 63.4063 9.90625ZM70.2813 10.7656Q68.957 10.7656 68.2285 9.69141Q67.5 8.61719 67.5 6.65625Q67.5 4.71094 68.2344 3.62891Q68.9688 2.54688 70.2813 2.54688Q71.5938 2.54688 72.3281 3.62891Q73.0625 4.71094 73.0625 6.65625Q73.0625 8.61719 72.334 9.69141Q71.6055 10.7656 70.2813 10.7656ZM70.2813 9.90625Q71.1563 9.90625 71.6406 9.0625Q72.125 8.21875 72.125 6.65625Q72.125 5.09766 71.6367 4.24414Q71.1484 3.39063 70.2813 3.39063Q69.4141 3.39063 68.9258 4.24414Q68.4375 5.09766 68.4375 6.65625Q68.4375 8.21875 68.9238 9.0625Q69.4102 9.90625 70.2813 9.90625Z" fill="#89D5E2" transform="translate(291 0)" />
            <path d="M0.96875 10.6563L0.96875 2.65625L1.9375 2.65625L1.9375 9.79688L5.65625 9.79688L5.65625 10.6563L0.96875 10.6563ZM7.70313 9.63281Q7.41406 9.63281 7.20703 9.42578Q7 9.21875 7 8.92969Q7 8.64063 7.20703 8.43359Q7.41406 8.22656 7.70313 8.22656Q7.99219 8.22656 8.19922 8.43359Q8.40625 8.64063 8.40625 8.92969Q8.40625 9.21875 8.19922 9.42578Q7.99219 9.63281 7.70313 9.63281ZM7.70313 5.58594Q7.41406 5.58594 7.20703 5.37891Q7 5.17188 7 4.88281Q7 4.59375 7.20703 4.38672Q7.41406 4.17969 7.70313 4.17969Q7.99219 4.17969 8.19922 4.38672Q8.40625 4.59375 8.40625 4.88281Q8.40625 5.17188 8.19922 5.37891Q7.99219 5.58594 7.70313 5.58594ZM15.5 11.6563L15.5 10.7852Q14.3477 10.7109 13.6758 10.1133Q13.0039 9.51563 12.9375 8.59375L13.9375 8.59375Q13.9883 9.19922 14.4375 9.52148Q14.8867 9.84375 15.5 9.90625L15.5 6.94922L15.1875 6.85938Q14.25 6.58984 13.7031 6.08984Q13.1563 5.58984 13.1563 4.78125Q13.1563 4.16797 13.4629 3.69336Q13.7695 3.21875 14.2988 2.92773Q14.8281 2.63672 15.5 2.56641L15.5 1.65625L16.1406 1.65625L16.1406 2.55469Q16.8477 2.60156 17.3945 2.88477Q17.9414 3.16797 18.2578 3.62695Q18.5742 4.08594 18.5938 4.65625L17.6563 4.65625Q17.5938 4.125 17.1777 3.80273Q16.7617 3.48047 16.1406 3.41797L16.1406 6.19531L16.4531 6.28125Q16.7656 6.36328 17.1504 6.50781Q17.5352 6.65234 17.8887 6.90039Q18.2422 7.14844 18.4727 7.53516Q18.7031 7.92188 18.7031 8.48438Q18.7031 9.09375 18.4043 9.59375Q18.1055 10.0938 17.5332 10.4121Q16.9609 10.7305 16.1406 10.7852L16.1406 11.6563L15.5 11.6563ZM16.1406 9.90625Q16.8477 9.82813 17.3066 9.44336Q17.7656 9.05859 17.7656 8.46875Q17.7656 8.07031 17.543 7.82031Q17.3203 7.57031 16.957 7.41406Q16.5938 7.25781 16.1719 7.14063L16.1406 7.13281L16.1406 9.90625ZM15.5 6.02344L15.5 3.42969Q14.8555 3.51172 14.4746 3.86914Q14.0938 4.22656 14.0938 4.73437Q14.0938 5.13281 14.3223 5.38672Q14.5508 5.64062 14.877 5.79102Q15.2031 5.94141 15.5 6.02344ZM22.9688 2.65625L22.9688 10.6563L22 10.6563L22 3.67188L21.9531 3.67188L20 4.96875L20 3.98437L22 2.65625L22.9688 2.65625ZM28.3594 10.6563L28.3594 9.95313L31 7.0625Q31.4648 6.55469 31.7656 6.17773Q32.0664 5.80078 32.2129 5.4668Q32.3594 5.13281 32.3594 4.76563Q32.3594 4.13281 31.9199 3.76172Q31.4805 3.39063 30.8281 3.39063Q30.1328 3.39063 29.7227 3.80664Q29.3125 4.22266 29.3125 4.90625L28.3906 4.90625Q28.3906 4.20313 28.7148 3.67188Q29.0391 3.14062 29.5996 2.84375Q30.1602 2.54688 30.8594 2.54688Q31.5625 2.54688 32.1055 2.84375Q32.6484 3.14063 32.957 3.64453Q33.2656 4.14844 33.2656 4.76563Q33.2656 5.20703 33.1074 5.62695Q32.9492 6.04688 32.5605 6.56055Q32.1719 7.07422 31.4844 7.8125L29.6875 9.73438L29.6875 9.79688L33.4063 9.79688L33.4063 10.6563L28.3594 10.6563ZM34.6563 9.01563L34.6563 8.21875L38.1719 2.65625L39.3438 2.65625L39.3438 8.15625L40.4375 8.15625L40.4375 9.01563L39.3438 9.01563L39.3438 10.6563L38.4219 10.6563L38.4219 9.01563L34.6563 9.01563ZM38.4219 8.15625L38.4219 3.89063L38.3594 3.89063L35.7031 8.09375L35.7031 8.15625L38.4219 8.15625ZM44.5156 10.7656Q43.1914 10.7656 42.4629 9.69141Q41.7344 8.61719 41.7344 6.65625Q41.7344 4.71094 42.4688 3.62891Q43.2031 2.54688 44.5156 2.54688Q45.8281 2.54688 46.5625 3.62891Q47.2969 4.71094 47.2969 6.65625Q47.2969 8.61719 46.5684 9.69141Q45.8398 10.7656 44.5156 10.7656ZM44.5156 9.90625Q45.3906 9.90625 45.875 9.0625Q46.3594 8.21875 46.3594 6.65625Q46.3594 5.09766 45.8711 4.24414Q45.3828 3.39063 44.5156 3.39063Q43.6484 3.39063 43.1602 4.24414Q42.6719 5.09766 42.6719 6.65625Q42.6719 8.21875 43.1582 9.0625Q43.6445 9.90625 44.5156 9.90625Z" fill="#C2C8E6" transform="translate(317 215)" />
            <path id="Line" d="M0 0C0.5 0.5 1.5 1.5 373.5 0" fill="none" stroke-width="0.5" stroke="#89D5E2" stroke-opacity="0.3" stroke-linecap="round" stroke-dasharray="1 2" transform="translate(0 19)" />
            <path id="Line" d="M0 0C0.5 0.5 1.5 1.5 373.5 0" fill="none" stroke-width="0.5" stroke="#C2C8E6" stroke-opacity="0.5" stroke-linecap="round" stroke-dasharray="1 2" transform="translate(0 230)" />
        </g>
    </g>
</svg>